<svg width="36" height="30" viewBox="0 0 36 30" fill="none" xmlns="http://www.w3.org/2000/svg">
<path fill-rule="evenodd" clip-rule="evenodd" d="M9.05237 0.746277C4.08181 0.746277 0.0523682 4.77571 0.0523682 9.74628V19.7463C0.0523682 21.437 0.518599 23.0189 1.32951 24.3703L33.9059 4.42973C32.2681 2.19633 29.625 0.746277 26.6433 0.746277H9.05237ZM35.2541 7.12009L3.30797 26.6749C4.86653 27.9685 6.86862 28.7463 9.05237 28.7463H26.6433C31.6138 28.7463 35.6433 24.7168 35.6433 19.7463V9.74628C35.6433 8.8327 35.5072 7.95091 35.2541 7.12009Z" fill="#EA4565"/>
<path d="M12.3599 8.83724C12.3599 7.29764 14.0265 6.3354 15.3599 7.1052L25.4793 12.9476C26.8126 13.7174 26.8126 15.6419 25.4793 16.4117L15.3599 22.2542C14.0265 23.024 12.3599 22.0617 12.3599 20.5221L12.3599 8.83724Z" fill="#F9F7FA"/>
<line x1="33.5642" y1="4.81031" x2="2.06393" y2="24.22" stroke="#143765" stroke-width="3" stroke-linecap="round"/>
</svg>
