<?xml version="1.0" encoding="utf-8"?>
<!-- Generator: Adobe Illustrator 26.0.0, SVG Export Plug-In . SVG Version: 6.00 Build 0)  -->
<svg version="1.1" id="Layer_1" xmlns="http://www.w3.org/2000/svg" xmlns:xlink="http://www.w3.org/1999/xlink" x="0px" y="0px"
	 viewBox="0 0 56 56" style="enable-background:new 0 0 56 56;" xml:space="preserve">
<style type="text/css">
	.st0{fill:#0FB5EF;stroke:#0FB5EF;stroke-width:5;}
	.st1{fill:#FFFFFF;}
</style>
<circle class="st0" cx="28" cy="28" r="25.5"/>
<path id="XMLID_219_" class="st1" d="M42.3,26.5c-0.3,0.8-1.1,1.4-2,1.4h-0.7v10.6c0,0.5-0.4,1-1,1h-5.8v-6.7c0-2.6-2.2-4.8-4.8-4.8
	s-4.8,2.2-4.8,4.8v6.7h-5.8c-0.5,0-1-0.4-1-1V27.9h-0.7c-0.9,0-1.7-0.5-2-1.4c-0.3-0.8-0.1-1.8,0.6-2.4l11.2-10.6
	c1.4-1.3,3.5-1.3,4.9,0l11.2,10.6C42.3,24.7,42.6,25.7,42.3,26.5z"/>
</svg>
