<svg width="177" height="177" viewBox="0 0 177 177" fill="none" xmlns="http://www.w3.org/2000/svg">
<g filter="url(#filter0_i_561_4838)">
<rect width="176.301" height="176.301" rx="35" fill="url(#paint0_radial_561_4838)"/>
</g>
<g filter="url(#filter1_d_561_4838)">
<rect x="23.9999" y="23.9999" width="128.219" height="128.219" rx="20" fill="white"/>
<path d="M105.375 68.9432C104.951 65.178 103.201 62.2614 100.125 60.1932C97.0492 58.0985 93.178 57.0511 88.5114 57.0511C85.1705 57.0511 82.2803 57.5814 79.8409 58.642C77.4015 59.6761 75.5057 61.108 74.1534 62.9375C72.8277 64.7405 72.1648 66.7955 72.1648 69.1023C72.1648 71.0379 72.6155 72.7083 73.517 74.1136C74.4451 75.5189 75.6515 76.6989 77.1364 77.6534C78.6477 78.5814 80.2652 79.3636 81.9886 80C83.7121 80.6098 85.3693 81.1136 86.9602 81.5114L94.9148 83.5795C97.5133 84.2159 100.178 85.0776 102.909 86.1648C105.64 87.2519 108.172 88.6837 110.506 90.4602C112.839 92.2367 114.722 94.4375 116.153 97.0625C117.612 99.6875 118.341 102.83 118.341 106.489C118.341 111.102 117.148 115.199 114.761 118.778C112.402 122.358 108.968 125.182 104.46 127.25C99.9792 129.318 94.5568 130.352 88.1932 130.352C82.0947 130.352 76.8182 129.384 72.3636 127.449C67.9091 125.513 64.4223 122.769 61.9034 119.216C59.3845 115.636 57.9924 111.394 57.7273 106.489H70.0568C70.2955 109.432 71.25 111.884 72.9205 113.847C74.6174 115.782 76.7784 117.227 79.4034 118.182C82.0549 119.11 84.9583 119.574 88.1136 119.574C91.5871 119.574 94.6761 119.03 97.3807 117.943C100.112 116.83 102.259 115.292 103.824 113.33C105.388 111.341 106.17 109.021 106.17 106.369C106.17 103.956 105.481 101.981 104.102 100.443C102.75 98.9053 100.907 97.6326 98.5739 96.625C96.267 95.6174 93.6553 94.7292 90.7386 93.9602L81.1136 91.3352C74.5909 89.5587 69.4205 86.947 65.6023 83.5C61.8106 80.053 59.9148 75.4924 59.9148 69.8182C59.9148 65.125 61.1875 61.0284 63.733 57.5284C66.2784 54.0284 69.7254 51.3106 74.0739 49.375C78.4223 47.4129 83.3277 46.4318 88.7898 46.4318C94.3049 46.4318 99.1705 47.3996 103.386 49.3352C107.629 51.2708 110.97 53.9356 113.409 57.3295C115.848 60.697 117.121 64.5682 117.227 68.9432H105.375Z" fill="#143765"/>
</g>
<defs>
<filter id="filter0_i_561_4838" x="0" y="0" width="176.301" height="176.301" filterUnits="userSpaceOnUse" color-interpolation-filters="sRGB">
<feFlood flood-opacity="0" result="BackgroundImageFix"/>
<feBlend mode="normal" in="SourceGraphic" in2="BackgroundImageFix" result="shape"/>
<feColorMatrix in="SourceAlpha" type="matrix" values="0 0 0 0 0 0 0 0 0 0 0 0 0 0 0 0 0 0 127 0" result="hardAlpha"/>
<feOffset/>
<feGaussianBlur stdDeviation="4"/>
<feComposite in2="hardAlpha" operator="arithmetic" k2="-1" k3="1"/>
<feColorMatrix type="matrix" values="0 0 0 0 0.639216 0 0 0 0 0.596078 0 0 0 0 0.894118 0 0 0 1 0"/>
<feBlend mode="normal" in2="shape" result="effect1_innerShadow_561_4838"/>
</filter>
<filter id="filter1_d_561_4838" x="19.9999" y="21.9999" width="136.219" height="136.219" filterUnits="userSpaceOnUse" color-interpolation-filters="sRGB">
<feFlood flood-opacity="0" result="BackgroundImageFix"/>
<feColorMatrix in="SourceAlpha" type="matrix" values="0 0 0 0 0 0 0 0 0 0 0 0 0 0 0 0 0 0 127 0" result="hardAlpha"/>
<feOffset dy="2"/>
<feGaussianBlur stdDeviation="2"/>
<feComposite in2="hardAlpha" operator="out"/>
<feColorMatrix type="matrix" values="0 0 0 0 0 0 0 0 0 0 0 0 0 0 0 0 0 0 0.25 0"/>
<feBlend mode="normal" in2="BackgroundImageFix" result="effect1_dropShadow_561_4838"/>
<feBlend mode="normal" in="SourceGraphic" in2="effect1_dropShadow_561_4838" result="shape"/>
</filter>
<radialGradient id="paint0_radial_561_4838" cx="0" cy="0" r="1" gradientUnits="userSpaceOnUse" gradientTransform="translate(88.1505 5.92316e-06) rotate(90) scale(176.301 198.533)">
<stop stop-color="#F03DA5"/>
<stop offset="1" stop-color="#7B6DCA"/>
</radialGradient>
</defs>
</svg>
