<svg width="56" height="56" viewBox="0 0 56 56" fill="none" xmlns="http://www.w3.org/2000/svg">
<circle cx="28" cy="28" r="25.5" fill="#F03DA5" stroke="#F03DA5" stroke-width="5"/>
<path d="M27.4948 19.1538C21.9699 19.1538 17.1939 22.3155 14.8906 26.9116C14.5473 27.5966 14.5473 28.4034 14.8906 29.0884C17.1939 33.6845 21.9699 36.8462 27.4948 36.8462C33.0197 36.8462 37.7957 33.6845 40.099 29.0884C40.4423 28.4034 40.4423 27.5966 40.099 26.9116C37.7957 22.3155 33.0197 19.1538 27.4948 19.1538ZM27.4948 33.8974C24.2098 33.8974 21.5438 31.2554 21.5438 28C21.5438 24.7446 24.2098 22.1026 27.4948 22.1026C30.7798 22.1026 33.4459 24.7446 33.4459 28C33.4459 31.2554 30.7798 33.8974 27.4948 33.8974ZM27.4948 24.4615C25.5191 24.4615 23.9242 26.0421 23.9242 28C23.9242 29.9579 25.5191 31.5385 27.4948 31.5385C29.4706 31.5385 31.0654 29.9579 31.0654 28C31.0654 26.0421 29.4706 24.4615 27.4948 24.4615Z" fill="white"/>
</svg>
