<svg width="56" height="56" viewBox="0 0 56 56" fill="none" xmlns="http://www.w3.org/2000/svg">
<path d="M27.9377 53.5C41.9929 53.5 53.3754 42.0769 53.3754 28C53.3754 13.9231 41.9929 2.5 27.9377 2.5C13.8824 2.5 2.5 13.9231 2.5 28C2.5 42.0769 13.8824 53.5 27.9377 53.5Z" fill="#143765" stroke="#143765" stroke-width="5"/>
<path d="M36.8272 32.0566C36.9903 31.6779 37.1311 31.2787 37.2532 30.8458C37.3715 30.4261 37.4638 29.9989 37.5096 29.5869L40.7414 28.2651C41.028 28.148 41.193 27.8123 41.1236 27.5093L39.8478 22.4444C39.7727 22.1115 39.4726 21.9272 39.1598 21.9377L35.6879 22.3132C35.1764 21.6298 34.6036 21.0141 33.923 20.4811L34.3931 17.0162C34.4297 16.6866 34.2318 16.3897 33.9188 16.3009L28.911 14.881C28.598 14.7922 28.2874 14.945 28.1464 15.245L26.7373 18.4436C25.8791 18.5402 25.0528 18.7734 24.277 19.0776L21.5153 16.9345C21.258 16.7482 20.9024 16.7607 20.6645 17.0049L16.9455 20.6535C16.7113 20.8846 16.6673 21.2404 16.8763 21.498L18.9392 24.3212C18.763 24.6962 18.5887 25.1143 18.4741 25.5209C18.3594 25.9276 18.2634 26.3678 18.2176 26.7798L14.9858 28.1017C14.6993 28.2187 14.5342 28.5544 14.6037 28.8574L15.8794 33.9223C15.9545 34.2552 16.2546 34.4395 16.5674 34.429L20.0394 34.0536C20.5508 34.7369 21.1236 35.3526 21.8043 35.8856L21.3341 39.3505C21.3106 39.6838 21.4955 39.977 21.8084 40.0658L26.8162 41.4857C27.1292 41.5745 27.4529 41.4255 27.5808 41.1217L28.9899 37.9231C29.8481 37.8265 30.6707 37.6064 31.4503 37.2892L34.212 39.4322C34.4693 39.6185 34.8249 39.606 35.0628 39.3618L38.7948 35.7169C39.0327 35.4727 39.0599 35.1263 38.864 34.8724L36.8272 32.0566ZM26.5319 32.9055C23.9498 32.1733 22.4364 29.4493 23.1688 26.8521C23.9013 24.255 26.6132 22.729 29.1954 23.4612C31.7775 24.1934 33.2908 26.9174 32.5584 29.5146C31.8259 32.1118 29.114 33.6377 26.5319 32.9055Z" fill="white"/>
</svg>
