<svg width="314" height="314" viewBox="0 0 314 314" fill="none" xmlns="http://www.w3.org/2000/svg">
<path d="M227.603 199.39C221.323 199.39 218.477 207.043 223.089 211.263C232.215 219.603 244.382 224.706 257.629 224.706C270.974 224.706 283.142 219.603 292.169 211.263C296.781 207.043 293.837 199.39 287.656 199.39H227.603Z" fill="#FF3B91"/>
<path d="M227.603 199.39C221.323 199.39 218.477 207.043 223.089 211.263C232.215 219.603 244.382 224.706 257.629 224.706C270.974 224.706 283.142 219.603 292.169 211.263C296.781 207.043 293.837 199.39 287.656 199.39H227.603Z" fill="url(#paint0_radial_1228_926)"/>
<path d="M234.766 181.335C230.351 185.751 233.687 193.208 239.967 192.914C252.331 192.423 264.498 187.419 273.918 177.999C283.338 168.579 288.342 156.411 288.833 144.048C289.127 137.866 281.67 134.431 277.254 138.847L234.766 181.335Z" fill="url(#paint1_radial_1228_926)"/>
<path d="M202.189 231.084C197.577 226.865 200.717 219.309 206.899 219.309C219.263 219.408 231.626 223.921 241.341 233.047C251.055 242.173 256.55 254.144 257.531 266.409C258.022 272.591 250.662 276.222 246.149 272.003L202.189 231.084Z" fill="url(#paint2_radial_1228_926)"/>
<path d="M182.956 226.276C182.76 220.094 190.218 216.856 194.633 221.272C203.268 230.103 208.861 241.976 209.352 255.321C209.843 268.666 205.231 280.932 197.184 290.352C193.161 295.062 185.409 292.511 185.213 286.231L182.956 226.276Z" fill="url(#paint3_radial_1228_926)"/>
<path d="M85.8125 200.077C91.9944 200.077 94.84 207.633 90.3262 211.852C81.2987 220.094 69.2294 225.197 56.0806 225.197C42.8338 225.197 30.8625 220.094 21.835 211.852C17.3213 207.633 20.1669 200.077 26.3488 200.077H85.8125Z" fill="url(#paint4_radial_1228_926)"/>
<path d="M78.6494 182.12C83.065 186.536 79.7288 193.895 73.5469 193.601C61.2813 193.11 49.2119 188.106 39.89 178.784C30.5681 169.462 25.5638 157.392 25.0731 145.127C24.7788 138.945 32.1381 135.609 36.5538 139.926L78.6494 182.12Z" fill="url(#paint5_radial_1228_926)"/>
<path d="M110.933 231.379C115.446 227.159 112.404 219.702 106.223 219.702C93.9569 219.8 81.6913 224.314 72.075 233.243C62.3606 242.271 57.0619 254.144 56.0806 266.409C55.59 272.591 62.8513 276.124 67.365 272.003L110.933 231.379Z" fill="url(#paint6_radial_1228_926)"/>
<path d="M130.95 227.454C131.146 221.272 123.689 218.034 119.273 222.449C110.638 231.281 105.045 243.154 104.554 256.499C104.064 269.844 108.676 282.109 116.722 291.529C120.745 296.239 128.497 293.688 128.693 287.408L130.95 227.454Z" fill="url(#paint7_radial_1228_926)"/>
<path d="M97.2932 159.355C82.28 159.355 70.0144 147.188 70.0144 132.076" stroke="url(#paint8_radial_1228_926)" stroke-width="1.7351" stroke-miterlimit="10" stroke-linecap="round"/>
<path d="M129.282 63.585H125.161V49.0625H143.804C143.804 57.1088 137.328 63.585 129.282 63.585Z" fill="#FF3490"/>
<path d="M132.775 123.27V140.441" stroke="url(#paint9_linear_1228_926)" stroke-width="5" stroke-linecap="round"/>
<path d="M181.531 123.27V140.441" stroke="url(#paint10_linear_1228_926)" stroke-width="5" stroke-linecap="round"/>
<path d="M129.282 66.8231H125.161V81.3456H143.804C143.804 73.2994 137.328 66.8231 129.282 66.8231Z" fill="url(#paint11_radial_1228_926)"/>
<path d="M70.1125 126.189C75.4234 126.189 79.7288 121.883 79.7288 116.573C79.7288 111.262 75.4234 106.956 70.1125 106.956C64.8016 106.956 60.4963 111.262 60.4963 116.573C60.4963 121.883 64.8016 126.189 70.1125 126.189Z" fill="url(#paint12_radial_1228_926)"/>
<path d="M70.1125 126.189C75.4234 126.189 79.7288 121.883 79.7288 116.573C79.7288 111.262 75.4234 106.956 70.1125 106.956C64.8016 106.956 60.4963 111.262 60.4963 116.573C60.4963 121.883 64.8016 126.189 70.1125 126.189Z" fill="url(#paint13_radial_1228_926)"/>
<path d="M70.1125 126.189C75.4234 126.189 79.7288 121.883 79.7288 116.573C79.7288 111.262 75.4234 106.956 70.1125 106.956C64.8016 106.956 60.4963 111.262 60.4963 116.573C60.4963 121.883 64.8016 126.189 70.1125 126.189Z" fill="url(#paint14_radial_1228_926)"/>
<path d="M85.8125 113.236H63.4494C63.1733 113.236 62.9492 113.01 62.9513 112.734C63.2201 77.6251 91.6348 49.1976 126.872 49.063C127.01 49.0625 127.123 49.1744 127.123 49.3125V72.0237C127.123 94.7887 108.578 113.236 85.8125 113.236Z" fill="url(#paint15_radial_1228_926)"/>
<path d="M85.8125 113.236H63.4494C63.1733 113.236 62.9492 113.01 62.9513 112.734C63.2201 77.6251 91.6348 49.1976 126.872 49.063C127.01 49.0625 127.123 49.1744 127.123 49.3125V72.0237C127.123 94.7887 108.578 113.236 85.8125 113.236Z" fill="url(#paint16_radial_1228_926)"/>
<path d="M215.141 159.355C230.154 159.355 242.42 147.188 242.42 132.076" stroke="url(#paint17_radial_1228_926)" stroke-width="1.7351" stroke-miterlimit="10" stroke-linecap="round"/>
<path d="M215.141 159.355C230.154 159.355 242.42 147.188 242.42 132.076" stroke="url(#paint18_radial_1228_926)" stroke-width="1.7351" stroke-miterlimit="10" stroke-linecap="round"/>
<path d="M215.141 159.355C230.154 159.355 242.42 147.188 242.42 132.076" stroke="url(#paint19_radial_1228_926)" stroke-width="1.7351" stroke-miterlimit="10" stroke-linecap="round"/>
<path d="M183.251 63.585H187.372V49.0625H168.728C168.728 57.1088 175.204 63.585 183.251 63.585Z" fill="url(#paint20_radial_1228_926)"/>
<path d="M183.251 63.585H187.372V49.0625H168.728C168.728 57.1088 175.204 63.585 183.251 63.585Z" fill="url(#paint21_linear_1228_926)"/>
<path d="M183.251 66.8231H187.372V81.3456H168.728C168.728 73.2994 175.204 66.8231 183.251 66.8231Z" fill="url(#paint22_radial_1228_926)"/>
<path d="M242.42 126.189C247.731 126.189 252.036 121.883 252.036 116.573C252.036 111.262 247.731 106.956 242.42 106.956C237.109 106.956 232.804 111.262 232.804 116.573C232.804 121.883 237.109 126.189 242.42 126.189Z" fill="url(#paint23_radial_1228_926)"/>
<path d="M242.42 126.189C247.731 126.189 252.036 121.883 252.036 116.573C252.036 111.262 247.731 106.956 242.42 106.956C237.109 106.956 232.804 111.262 232.804 116.573C232.804 121.883 237.109 126.189 242.42 126.189Z" fill="url(#paint24_radial_1228_926)"/>
<g filter="url(#filter0_f_1228_926)">
<path d="M206.063 262.791C208.516 247.919 203.149 241.019 203.149 241.019C203.149 241.019 200.85 252.212 199.01 262.791C197.438 271.83 193.797 287.936 193.797 287.936C193.797 287.936 203.609 277.663 206.063 262.791Z" fill="url(#paint25_radial_1228_926)"/>
</g>
<g filter="url(#filter1_f_1228_926)">
<path d="M75.4337 239.793C86.9712 230.093 99.5049 233.047 99.5049 233.047C99.5049 233.047 90.6449 243.237 82.4862 250.218C75.5152 256.184 63.5233 267.534 63.5233 267.534C63.5233 267.534 63.8962 249.493 75.4337 239.793Z" fill="url(#paint26_radial_1228_926)"/>
</g>
<g filter="url(#filter2_f_1228_926)">
<path d="M117.246 266.366C118.015 251.313 122.963 246.233 122.963 246.233C122.963 246.233 124.439 271.92 126.336 289.162C126.336 289.162 116.478 281.42 117.246 266.366Z" fill="url(#paint27_radial_1228_926)"/>
</g>
<path d="M226.622 113.236H249.083C249.359 113.236 249.583 113.01 249.581 112.734C249.312 77.6253 220.801 49.198 185.661 49.063C185.523 49.0625 185.409 49.1744 185.409 49.3125V72.0237C185.409 94.7887 203.857 113.236 226.622 113.236Z" fill="#FF4275"/>
<path d="M226.622 113.236H249.083C249.359 113.236 249.583 113.01 249.581 112.734C249.312 77.6253 220.801 49.198 185.661 49.063C185.523 49.0625 185.409 49.1744 185.409 49.3125V72.0237C185.409 94.7887 203.857 113.236 226.622 113.236Z" fill="url(#paint28_radial_1228_926)"/>
<path d="M226.622 113.236H249.083C249.359 113.236 249.583 113.01 249.581 112.734C249.312 77.6253 220.801 49.198 185.661 49.063C185.523 49.0625 185.409 49.1744 185.409 49.3125V72.0237C185.409 94.7887 203.857 113.236 226.622 113.236Z" fill="url(#paint29_radial_1228_926)"/>
<path d="M226.622 113.236H249.083C249.359 113.236 249.583 113.01 249.581 112.734C249.312 77.6253 220.801 49.198 185.661 49.063C185.523 49.0625 185.409 49.1744 185.409 49.3125V72.0237C185.409 94.7887 203.857 113.236 226.622 113.236Z" fill="url(#paint30_radial_1228_926)"/>
<path d="M242.616 179.863C242.616 227.552 203.955 266.213 156.266 266.213C108.578 266.213 69.9163 227.552 69.9163 179.863C69.9163 132.174 108.578 127.464 156.266 127.464C203.955 127.464 242.616 132.076 242.616 179.863Z" fill="#F9266D"/>
<path d="M242.616 179.863C242.616 227.552 203.955 266.213 156.266 266.213C108.578 266.213 69.9163 227.552 69.9163 179.863C69.9163 132.174 108.578 127.464 156.266 127.464C203.955 127.464 242.616 132.076 242.616 179.863Z" fill="url(#paint31_radial_1228_926)"/>
<path d="M242.616 179.863C242.616 227.552 203.955 266.213 156.266 266.213C108.578 266.213 69.9163 227.552 69.9163 179.863C69.9163 132.174 108.578 127.464 156.266 127.464C203.955 127.464 242.616 132.076 242.616 179.863Z" fill="url(#paint32_radial_1228_926)"/>
<path d="M242.616 179.863C242.616 227.552 203.955 266.213 156.266 266.213C108.578 266.213 69.9163 227.552 69.9163 179.863C69.9163 132.174 108.578 127.464 156.266 127.464C203.955 127.464 242.616 132.076 242.616 179.863Z" fill="url(#paint33_radial_1228_926)"/>
<g filter="url(#filter3_f_1228_926)">
<path d="M187.372 50.0591V71.4473C187.372 74.5137 188.201 83.5596 190.347 86.7026" stroke="url(#paint34_radial_1228_926)" stroke-width="0.25"/>
</g>
<g filter="url(#filter4_f_1228_926)">
<path d="M125.161 51.209V71.4473C125.161 79.8799 121.123 93.5254 112.23 100.885" stroke="url(#paint35_radial_1228_926)" stroke-width="0.25"/>
</g>
<g filter="url(#filter5_f_1228_926)">
<path d="M281.496 154.147C277.893 160.088 262.758 173.726 262.758 173.726C265.187 170.446 271.447 162.17 276.105 154.148C280.272 146.971 282.203 138.765 283.949 139.522C287.646 141.124 285.099 148.206 281.496 154.147Z" fill="url(#paint36_radial_1228_926)"/>
</g>
<g filter="url(#filter6_f_1228_926)">
<path d="M40.6299 157.153C44.9353 162.607 66.541 174.631 66.541 174.631C63.7267 171.674 52.5888 161.022 45.9961 154.547C40.3657 149.017 34.9333 140.252 33.2938 141.217C29.8219 143.261 36.3244 151.699 40.6299 157.153Z" fill="url(#paint37_radial_1228_926)"/>
</g>
<g filter="url(#filter7_f_1228_926)">
<path d="M278.563 209.619C271.671 210.497 251.576 207.139 251.576 207.139C255.656 206.999 266.03 206.747 275.207 205.4C283.419 204.194 291.043 200.599 291.538 202.436C292.584 206.327 285.456 208.741 278.563 209.619Z" fill="url(#paint38_radial_1228_926)"/>
</g>
<g filter="url(#filter8_f_1228_926)">
<path d="M245.851 241.591C241.12 235.144 226.323 227.524 226.323 227.524C226.323 227.524 238.468 238.187 243.086 246.231C247.219 253.429 251.819 263.645 253.568 262.897C257.272 261.313 250.582 248.037 245.851 241.591Z" fill="url(#paint39_radial_1228_926)"/>
</g>
<defs>
<filter id="filter0_f_1228_926" x="193.547" y="240.769" width="13.4078" height="47.4167" filterUnits="userSpaceOnUse" color-interpolation-filters="sRGB">
<feFlood flood-opacity="0" result="BackgroundImageFix"/>
<feBlend mode="normal" in="SourceGraphic" in2="BackgroundImageFix" result="shape"/>
<feGaussianBlur stdDeviation="0.125" result="effect1_foregroundBlur_1228_926"/>
</filter>
<filter id="filter1_f_1228_926" x="63.2733" y="232.374" width="36.4816" height="35.4104" filterUnits="userSpaceOnUse" color-interpolation-filters="sRGB">
<feFlood flood-opacity="0" result="BackgroundImageFix"/>
<feBlend mode="normal" in="SourceGraphic" in2="BackgroundImageFix" result="shape"/>
<feGaussianBlur stdDeviation="0.125" result="effect1_foregroundBlur_1228_926"/>
</filter>
<filter id="filter2_f_1228_926" x="116.954" y="245.983" width="9.63245" height="43.4292" filterUnits="userSpaceOnUse" color-interpolation-filters="sRGB">
<feFlood flood-opacity="0" result="BackgroundImageFix"/>
<feBlend mode="normal" in="SourceGraphic" in2="BackgroundImageFix" result="shape"/>
<feGaussianBlur stdDeviation="0.125" result="effect1_foregroundBlur_1228_926"/>
</filter>
<filter id="filter3_f_1228_926" x="186.997" y="49.8091" width="3.70361" height="37.2141" filterUnits="userSpaceOnUse" color-interpolation-filters="sRGB">
<feFlood flood-opacity="0" result="BackgroundImageFix"/>
<feBlend mode="normal" in="SourceGraphic" in2="BackgroundImageFix" result="shape"/>
<feGaussianBlur stdDeviation="0.125" result="effect1_foregroundBlur_1228_926"/>
</filter>
<filter id="filter4_f_1228_926" x="111.901" y="50.959" width="13.6348" height="50.2721" filterUnits="userSpaceOnUse" color-interpolation-filters="sRGB">
<feFlood flood-opacity="0" result="BackgroundImageFix"/>
<feBlend mode="normal" in="SourceGraphic" in2="BackgroundImageFix" result="shape"/>
<feGaussianBlur stdDeviation="0.125" result="effect1_foregroundBlur_1228_926"/>
</filter>
<filter id="filter5_f_1228_926" x="262.508" y="139.223" width="23.5012" height="34.7532" filterUnits="userSpaceOnUse" color-interpolation-filters="sRGB">
<feFlood flood-opacity="0" result="BackgroundImageFix"/>
<feBlend mode="normal" in="SourceGraphic" in2="BackgroundImageFix" result="shape"/>
<feGaussianBlur stdDeviation="0.125" result="effect1_foregroundBlur_1228_926"/>
</filter>
<filter id="filter6_f_1228_926" x="32.0601" y="140.894" width="34.731" height="33.9877" filterUnits="userSpaceOnUse" color-interpolation-filters="sRGB">
<feFlood flood-opacity="0" result="BackgroundImageFix"/>
<feBlend mode="normal" in="SourceGraphic" in2="BackgroundImageFix" result="shape"/>
<feGaussianBlur stdDeviation="0.125" result="effect1_foregroundBlur_1228_926"/>
</filter>
<filter id="filter7_f_1228_926" x="251.326" y="201.673" width="40.5643" height="8.34241" filterUnits="userSpaceOnUse" color-interpolation-filters="sRGB">
<feFlood flood-opacity="0" result="BackgroundImageFix"/>
<feBlend mode="normal" in="SourceGraphic" in2="BackgroundImageFix" result="shape"/>
<feGaussianBlur stdDeviation="0.125" result="effect1_foregroundBlur_1228_926"/>
</filter>
<filter id="filter8_f_1228_926" x="226.073" y="227.274" width="28.8195" height="35.9119" filterUnits="userSpaceOnUse" color-interpolation-filters="sRGB">
<feFlood flood-opacity="0" result="BackgroundImageFix"/>
<feBlend mode="normal" in="SourceGraphic" in2="BackgroundImageFix" result="shape"/>
<feGaussianBlur stdDeviation="0.125" result="effect1_foregroundBlur_1228_926"/>
</filter>
<radialGradient id="paint0_radial_1228_926" cx="0" cy="0" r="1" gradientUnits="userSpaceOnUse" gradientTransform="translate(280.883 214.955) rotate(87.8591) scale(32.8335 78.4287)">
<stop offset="0.30569" stop-color="#FF40B5"/>
<stop offset="0.80598" stop-color="#F01147"/>
</radialGradient>
<radialGradient id="paint1_radial_1228_926" cx="0" cy="0" r="1" gradientUnits="userSpaceOnUse" gradientTransform="translate(282.109 155.773) rotate(41.5526) scale(36.0586 120.14)">
<stop offset="0.129014" stop-color="#FF3FB1"/>
<stop offset="1" stop-color="#F01147"/>
</radialGradient>
<radialGradient id="paint2_radial_1228_926" cx="0" cy="0" r="1" gradientUnits="userSpaceOnUse" gradientTransform="translate(235.5 261.258) rotate(58.2405) scale(60.5877 41.7678)">
<stop offset="0.387705" stop-color="#FF40B5"/>
<stop offset="0.80598" stop-color="#F01147"/>
</radialGradient>
<radialGradient id="paint3_radial_1228_926" cx="0" cy="0" r="1" gradientUnits="userSpaceOnUse" gradientTransform="translate(187.051 283.336) rotate(113.595) scale(58.223 32.1985)">
<stop offset="0.497242" stop-color="#FF40B5"/>
<stop offset="1" stop-color="#F01147"/>
</radialGradient>
<radialGradient id="paint4_radial_1228_926" cx="0" cy="0" r="1" gradientUnits="userSpaceOnUse" gradientTransform="translate(42.9297 212.637) rotate(27.7926) scale(87.1767 48.9651)">
<stop offset="0.190899" stop-color="#FF40B5"/>
<stop offset="0.592902" stop-color="#F01147"/>
</radialGradient>
<radialGradient id="paint5_radial_1228_926" cx="0" cy="0" r="1" gradientUnits="userSpaceOnUse" gradientTransform="translate(42.8372 165.792) rotate(56.8438) scale(107.535 67.0462)">
<stop offset="0.190899" stop-color="#FF40B5"/>
<stop offset="0.592902" stop-color="#F01147"/>
</radialGradient>
<radialGradient id="paint6_radial_1228_926" cx="0" cy="0" r="1" gradientUnits="userSpaceOnUse" gradientTransform="translate(61.9413 256.351) rotate(34.616) scale(84.2073 55.6529)">
<stop offset="0.275823" stop-color="#FF40B5"/>
<stop offset="0.686522" stop-color="#F01147"/>
</radialGradient>
<radialGradient id="paint7_radial_1228_926" cx="0" cy="0" r="1" gradientUnits="userSpaceOnUse" gradientTransform="translate(104.519 280.883) rotate(60.7817) scale(66.0526 36.5284)">
<stop offset="0.497242" stop-color="#FF40B5"/>
<stop offset="0.802593" stop-color="#F01147"/>
</radialGradient>
<radialGradient id="paint8_radial_1228_926" cx="0" cy="0" r="1" gradientUnits="userSpaceOnUse" gradientTransform="translate(83.6538 134.616) rotate(81.9156) scale(35.3079 27.1889)">
<stop offset="0.303182" stop-color="#F75370"/>
<stop offset="0.449814" stop-color="#FE5D79"/>
<stop offset="0.690358" stop-color="#F0304B"/>
<stop offset="1" stop-color="#F67C7D"/>
</radialGradient>
<linearGradient id="paint9_linear_1228_926" x1="132.166" y1="127.563" x2="133.369" y2="127.563" gradientUnits="userSpaceOnUse">
<stop stop-color="#716769"/>
<stop offset="0.271429" stop-color="#4B2A37"/>
<stop offset="0.667772" stop-color="#5A434C"/>
<stop offset="1" stop-color="#553E43"/>
</linearGradient>
<linearGradient id="paint10_linear_1228_926" x1="180.922" y1="127.563" x2="182.125" y2="127.563" gradientUnits="userSpaceOnUse">
<stop stop-color="#716769"/>
<stop offset="0.271429" stop-color="#4B2A37"/>
<stop offset="0.667772" stop-color="#5A434C"/>
<stop offset="1" stop-color="#553E43"/>
</linearGradient>
<radialGradient id="paint11_radial_1228_926" cx="0" cy="0" r="1" gradientUnits="userSpaceOnUse" gradientTransform="translate(131.524 81.3456) rotate(-35.2304) scale(15.0336 19.2999)">
<stop stop-color="#FF1AAF"/>
<stop offset="1" stop-color="#F5166D"/>
</radialGradient>
<radialGradient id="paint12_radial_1228_926" cx="0" cy="0" r="1" gradientUnits="userSpaceOnUse" gradientTransform="translate(73.925 116.573) rotate(130.727) scale(12.6893 12.6893)">
<stop stop-color="#F24576"/>
<stop offset="0.537562" stop-color="#ED2554"/>
</radialGradient>
<radialGradient id="paint13_radial_1228_926" cx="0" cy="0" r="1" gradientUnits="userSpaceOnUse" gradientTransform="translate(73.2871 111.004) rotate(97.5946) scale(6.96047 10.2545)">
<stop offset="0.408097" stop-color="#E60A44"/>
<stop offset="1" stop-color="#F3063B" stop-opacity="0"/>
</radialGradient>
<radialGradient id="paint14_radial_1228_926" cx="0" cy="0" r="1" gradientUnits="userSpaceOnUse" gradientTransform="translate(58.5684 116.573) rotate(36.601) scale(8.40313 12.2989)">
<stop stop-color="#FF8990"/>
<stop offset="1" stop-color="#FF8C92" stop-opacity="0"/>
</radialGradient>
<radialGradient id="paint15_radial_1228_926" cx="0" cy="0" r="1" gradientUnits="userSpaceOnUse" gradientTransform="translate(113.457 98.7383) rotate(-137.726) scale(45.5854 60.9066)">
<stop stop-color="#FF31AD"/>
<stop offset="0.470007" stop-color="#FF3887"/>
<stop offset="0.823995" stop-color="#FF607C"/>
<stop offset="1" stop-color="#FF7F8E"/>
</radialGradient>
<radialGradient id="paint16_radial_1228_926" cx="0" cy="0" r="1" gradientUnits="userSpaceOnUse" gradientTransform="translate(123.883 55.8086) rotate(138.662) scale(108.636 43.6738)">
<stop offset="0.706993" stop-color="#FF23B1" stop-opacity="0"/>
<stop offset="0.833643" stop-color="#FF22B6"/>
</radialGradient>
<radialGradient id="paint17_radial_1228_926" cx="0" cy="0" r="1" gradientUnits="userSpaceOnUse" gradientTransform="translate(219.401 136.609) rotate(31.4497) scale(31.002 49.4959)">
<stop offset="0.392113" stop-color="#FE8792"/>
<stop offset="0.503057" stop-color="#F5365A"/>
<stop offset="0.724157" stop-color="#FF436C"/>
<stop offset="1" stop-color="#F02A32"/>
</radialGradient>
<radialGradient id="paint18_radial_1228_926" cx="0" cy="0" r="1" gradientUnits="userSpaceOnUse" gradientTransform="translate(245.619 130.783) rotate(115.017) scale(5.07581)">
<stop stop-color="#FF6C7B"/>
<stop offset="1" stop-color="#FF6D7A" stop-opacity="0"/>
</radialGradient>
<radialGradient id="paint19_radial_1228_926" cx="0" cy="0" r="1" gradientUnits="userSpaceOnUse" gradientTransform="translate(242.42 124.803) rotate(60.5803) scale(6.5127 7.30098)">
<stop stop-color="#F30E47"/>
<stop offset="1" stop-color="#F5134B" stop-opacity="0"/>
</radialGradient>
<radialGradient id="paint20_radial_1228_926" cx="0" cy="0" r="1" gradientUnits="userSpaceOnUse" gradientTransform="translate(178.05 58.2617) rotate(90) scale(11.6523 29.843)">
<stop stop-color="#FE1F9C"/>
<stop offset="1" stop-color="#FF4481"/>
</radialGradient>
<linearGradient id="paint21_linear_1228_926" x1="188.891" y1="56.3238" x2="179.845" y2="56.3238" gradientUnits="userSpaceOnUse">
<stop offset="0.288136" stop-color="#F61A71"/>
<stop offset="0.949152" stop-color="#FC1C81" stop-opacity="0"/>
</linearGradient>
<radialGradient id="paint22_radial_1228_926" cx="0" cy="0" r="1" gradientUnits="userSpaceOnUse" gradientTransform="translate(175.092 81.3456) rotate(-35.2303) scale(15.0336 19.2999)">
<stop stop-color="#FF1AAF"/>
<stop offset="1" stop-color="#F5166D"/>
</radialGradient>
<radialGradient id="paint23_radial_1228_926" cx="0" cy="0" r="1" gradientUnits="userSpaceOnUse" gradientTransform="translate(246.232 116.573) rotate(130.727) scale(12.6893 12.6893)">
<stop stop-color="#FF687D"/>
<stop offset="0.537562" stop-color="#F22362"/>
</radialGradient>
<radialGradient id="paint24_radial_1228_926" cx="0" cy="0" r="1" gradientUnits="userSpaceOnUse" gradientTransform="translate(243.856 110.39) rotate(57.6804) scale(4.44497 11.8506)">
<stop offset="0.408097" stop-color="#F3083A"/>
<stop offset="1" stop-color="#F3063B" stop-opacity="0"/>
</radialGradient>
<radialGradient id="paint25_radial_1228_926" cx="0" cy="0" r="1" gradientUnits="userSpaceOnUse" gradientTransform="translate(196.855 286.167) rotate(-78.2741) scale(46.0529 30.4497)">
<stop stop-color="#FF6AC1"/>
<stop offset="1" stop-color="#FF67C0" stop-opacity="0"/>
</radialGradient>
<radialGradient id="paint26_radial_1228_926" cx="0" cy="0" r="1" gradientUnits="userSpaceOnUse" gradientTransform="translate(61.6795 262.681) rotate(-42.4134) scale(46.0529 30.4497)">
<stop stop-color="#FF37A2"/>
<stop offset="1" stop-color="#FF67C0" stop-opacity="0"/>
</radialGradient>
<radialGradient id="paint27_radial_1228_926" cx="0" cy="0" r="1" gradientUnits="userSpaceOnUse" gradientTransform="translate(126.038 289.816) rotate(-92.7653) scale(32.8893 21.7461)">
<stop stop-color="#FF6AC1"/>
<stop offset="1" stop-color="#FF67C0" stop-opacity="0"/>
</radialGradient>
<radialGradient id="paint28_radial_1228_926" cx="0" cy="0" r="1" gradientUnits="userSpaceOnUse" gradientTransform="translate(185.409 120.203) rotate(-41.5322) scale(69.3715 69.3715)">
<stop offset="0.456386" stop-color="#FF4AAF"/>
<stop offset="1" stop-color="#FF4570"/>
</radialGradient>
<radialGradient id="paint29_radial_1228_926" cx="0" cy="0" r="1" gradientUnits="userSpaceOnUse" gradientTransform="translate(233.66 90.1523) rotate(90) scale(38.6367 38.6367)">
<stop stop-color="#FF6D8D"/>
<stop offset="1" stop-color="#FF6C8C" stop-opacity="0"/>
</radialGradient>
<radialGradient id="paint30_radial_1228_926" cx="0" cy="0" r="1" gradientUnits="userSpaceOnUse" gradientTransform="translate(223.234 77.8867) rotate(-49.8645) scale(81.8219 112.809)">
<stop offset="0.322697" stop-color="#FF18A9" stop-opacity="0"/>
<stop offset="0.450787" stop-color="#C91589"/>
</radialGradient>
<radialGradient id="paint31_radial_1228_926" cx="0" cy="0" r="1" gradientUnits="userSpaceOnUse" gradientTransform="translate(234.274 161.906) rotate(90) scale(95.6719 267.582)">
<stop stop-color="#FF69AC"/>
<stop offset="1" stop-color="#FF3897" stop-opacity="0"/>
</radialGradient>
<radialGradient id="paint32_radial_1228_926" cx="0" cy="0" r="1" gradientUnits="userSpaceOnUse" gradientTransform="translate(170.492 210.969) rotate(98.5659) scale(95.5107 148.235)">
<stop offset="0.810945" stop-color="#FF238E" stop-opacity="0"/>
<stop offset="0.9" stop-color="#FA1D84"/>
</radialGradient>
<radialGradient id="paint33_radial_1228_926" cx="0" cy="0" r="1" gradientUnits="userSpaceOnUse" gradientTransform="translate(202.996 196.839) rotate(138.485) scale(163.808 178.496)">
<stop offset="0.738493" stop-color="#FF6899" stop-opacity="0"/>
<stop offset="0.777934" stop-color="#FF739E"/>
</radialGradient>
<radialGradient id="paint34_radial_1228_926" cx="0" cy="0" r="1" gradientUnits="userSpaceOnUse" gradientTransform="translate(187.372 57.0352) rotate(88.619) scale(37.5744 3.5176)">
<stop offset="0.217273" stop-color="#FF7FA4"/>
<stop offset="1" stop-color="#FF608E" stop-opacity="0"/>
</radialGradient>
<radialGradient id="paint35_radial_1228_926" cx="0" cy="0" r="1" gradientUnits="userSpaceOnUse" gradientTransform="translate(125.161 57.0352) rotate(94.564) scale(58.4471 5.47164)">
<stop offset="0.234419" stop-color="#FF7FA4"/>
<stop offset="1" stop-color="#FF608E" stop-opacity="0"/>
</radialGradient>
<radialGradient id="paint36_radial_1228_926" cx="0" cy="0" r="1" gradientUnits="userSpaceOnUse" gradientTransform="translate(286.233 144.734) rotate(112.839) scale(31.9285 21.1108)">
<stop stop-color="#FF6AC1"/>
<stop offset="0.67016" stop-color="#FF67C0" stop-opacity="0"/>
</radialGradient>
<radialGradient id="paint37_radial_1228_926" cx="0" cy="0" r="1" gradientUnits="userSpaceOnUse" gradientTransform="translate(31.6672 146.67) rotate(43.3419) scale(67.7683 44.8077)">
<stop stop-color="#FF6AC1"/>
<stop offset="0.67016" stop-color="#FF67C0" stop-opacity="0"/>
</radialGradient>
<radialGradient id="paint38_radial_1228_926" cx="0" cy="0" r="1" gradientUnits="userSpaceOnUse" gradientTransform="translate(288.879 207.468) rotate(164.347) scale(31.9285 21.1108)">
<stop stop-color="#FF6AC1"/>
<stop offset="0.67016" stop-color="#FF67C0" stop-opacity="0"/>
</radialGradient>
<radialGradient id="paint39_radial_1228_926" cx="0" cy="0" r="1" gradientUnits="userSpaceOnUse" gradientTransform="translate(255.291 258.692) rotate(-129.683) scale(46.0529 30.4497)">
<stop stop-color="#FF6AC1"/>
<stop offset="1" stop-color="#FF67C0" stop-opacity="0"/>
</radialGradient>
</defs>
</svg>
