<svg width="250" height="250" viewBox="0 0 250 250" fill="none" xmlns="http://www.w3.org/2000/svg">
<path d="M133.011 232.734H116.37C114.573 232.734 113.011 231.484 112.542 229.765L97.6202 167.109H121.058L135.823 229.218C136.292 230.937 134.886 232.734 133.011 232.734Z" fill="url(#paint0_linear_561_4812)"/>
<path d="M133.011 232.734H116.37C114.573 232.734 113.011 231.484 112.542 229.765L97.6202 167.109H121.058L135.823 229.218C136.292 230.937 134.886 232.734 133.011 232.734Z" fill="url(#paint1_linear_561_4812)"/>
<path d="M133.011 232.734H116.37C114.573 232.734 113.011 231.484 112.542 229.765L97.6202 167.109H121.058L135.823 229.218C136.292 230.937 134.886 232.734 133.011 232.734Z" fill="url(#paint2_linear_561_4812)"/>
<path d="M133.011 232.734H116.37C114.573 232.734 113.011 231.484 112.542 229.765L97.6202 167.109H121.058L135.823 229.218C136.292 230.937 134.886 232.734 133.011 232.734Z" fill="url(#paint3_linear_561_4812)"/>
<path d="M133.011 232.734H116.37C114.573 232.734 113.011 231.484 112.542 229.765L97.6202 167.109H121.058L135.823 229.218C136.292 230.937 134.886 232.734 133.011 232.734Z" fill="url(#paint4_linear_561_4812)"/>
<path d="M133.011 232.734H116.37C114.573 232.734 113.011 231.484 112.542 229.765L97.6202 167.109H121.058L135.823 229.218C136.292 230.937 134.886 232.734 133.011 232.734Z" fill="url(#paint5_linear_561_4812)"/>
<path d="M145.667 232.734H162.308C164.105 232.734 165.667 231.484 166.136 229.765L181.058 167.109H157.62L142.855 229.218C142.386 230.937 143.792 232.734 145.667 232.734Z" fill="url(#paint6_linear_561_4812)"/>
<path d="M145.667 232.734H162.308C164.105 232.734 165.667 231.484 166.136 229.765L181.058 167.109H157.62L142.855 229.218C142.386 230.937 143.792 232.734 145.667 232.734Z" fill="url(#paint7_linear_561_4812)"/>
<path d="M145.667 232.734H162.308C164.105 232.734 165.667 231.484 166.136 229.765L181.058 167.109H157.62L142.855 229.218C142.386 230.937 143.792 232.734 145.667 232.734Z" fill="url(#paint8_linear_561_4812)"/>
<path d="M145.667 232.734H162.308C164.105 232.734 165.667 231.484 166.136 229.765L181.058 167.109H157.62L142.855 229.218C142.386 230.937 143.792 232.734 145.667 232.734Z" fill="url(#paint9_linear_561_4812)"/>
<path d="M145.667 232.734H162.308C164.105 232.734 165.667 231.484 166.136 229.765L181.058 167.109H157.62L142.855 229.218C142.386 230.937 143.792 232.734 145.667 232.734Z" fill="url(#paint10_linear_561_4812)"/>
<path d="M145.667 232.734H162.308C164.105 232.734 165.667 231.484 166.136 229.765L181.058 167.109H157.62L142.855 229.218C142.386 230.937 143.792 232.734 145.667 232.734Z" fill="url(#paint11_linear_561_4812)"/>
<path d="M180.198 21.7965C175.745 21.7184 171.37 22.2653 167.23 23.2028C161.995 24.3746 159.573 30.4684 162.542 34.9215C162.542 34.9996 162.62 34.9996 162.62 35.0778C164.417 37.8121 167.698 39.1403 170.901 38.4371C173.714 37.734 176.683 37.4215 179.651 37.4215C201.839 37.4215 219.808 56.0153 218.636 78.4371C217.62 98.359 201.526 114.531 181.526 115.468C175.12 115.781 169.105 114.531 163.714 112.109C163.089 113.359 162.073 114.375 160.98 115.234C161.058 119.218 160.902 123.593 159.652 127.343C165.823 129.843 172.62 131.172 179.651 131.172C210.12 131.172 234.73 106.25 234.339 75.7028C233.948 46.1715 209.73 22.109 180.198 21.7965Z" fill="url(#paint12_radial_561_4812)"/>
<path d="M180.198 21.7965C175.745 21.7184 171.37 22.2653 167.23 23.2028C161.995 24.3746 159.573 30.4684 162.542 34.9215C162.542 34.9996 162.62 34.9996 162.62 35.0778C164.417 37.8121 167.698 39.1403 170.901 38.4371C173.714 37.734 176.683 37.4215 179.651 37.4215C201.839 37.4215 219.808 56.0153 218.636 78.4371C217.62 98.359 201.526 114.531 181.526 115.468C175.12 115.781 169.105 114.531 163.714 112.109C163.089 113.359 162.073 114.375 160.98 115.234C161.058 119.218 160.902 123.593 159.652 127.343C165.823 129.843 172.62 131.172 179.651 131.172C210.12 131.172 234.73 106.25 234.339 75.7028C233.948 46.1715 209.73 22.109 180.198 21.7965Z" fill="url(#paint13_radial_561_4812)"/>
<path d="M180.198 21.7965C175.745 21.7184 171.37 22.2653 167.23 23.2028C161.995 24.3746 159.573 30.4684 162.542 34.9215C162.542 34.9996 162.62 34.9996 162.62 35.0778C164.417 37.8121 167.698 39.1403 170.901 38.4371C173.714 37.734 176.683 37.4215 179.651 37.4215C201.839 37.4215 219.808 56.0153 218.636 78.4371C217.62 98.359 201.526 114.531 181.526 115.468C175.12 115.781 169.105 114.531 163.714 112.109C163.089 113.359 162.073 114.375 160.98 115.234C161.058 119.218 160.902 123.593 159.652 127.343C165.823 129.843 172.62 131.172 179.651 131.172C210.12 131.172 234.73 106.25 234.339 75.7028C233.948 46.1715 209.73 22.109 180.198 21.7965Z" fill="url(#paint14_radial_561_4812)"/>
<path d="M180.198 21.7965C175.745 21.7184 171.37 22.2653 167.23 23.2028C161.995 24.3746 159.573 30.4684 162.542 34.9215C162.542 34.9996 162.62 34.9996 162.62 35.0778C164.417 37.8121 167.698 39.1403 170.901 38.4371C173.714 37.734 176.683 37.4215 179.651 37.4215C201.839 37.4215 219.808 56.0153 218.636 78.4371C217.62 98.359 201.526 114.531 181.526 115.468C175.12 115.781 169.105 114.531 163.714 112.109C163.089 113.359 162.073 114.375 160.98 115.234C161.058 119.218 160.902 123.593 159.652 127.343C165.823 129.843 172.62 131.172 179.651 131.172C210.12 131.172 234.73 106.25 234.339 75.7028C233.948 46.1715 209.73 22.109 180.198 21.7965Z" fill="url(#paint15_radial_561_4812)"/>
<path d="M167.933 84.2969C160.276 84.2969 152.62 86.0156 145.745 89.375L108.48 107.5C105.276 109.063 101.605 106.719 101.605 103.203V92.8125C101.605 83.0469 97.9327 74.1406 91.9171 67.3438L60.2765 32.1094C58.3234 29.9219 54.6515 31.25 54.6515 34.2188V54.7935C54.6515 55.143 54.4096 55.4452 54.0707 55.5306C39.7384 59.1426 28.5183 73.7181 25.589 88.75C25.1984 90.7031 23.4796 92.1094 21.5265 92.1094C18.2452 92.1094 15.589 94.7656 15.589 98.0469V99.7656C15.589 116.908 29.3272 130.845 46.3931 131.166C46.7244 131.172 46.9952 131.441 46.9952 131.772V143.594C46.9952 161.299 60.3088 175.867 77.5464 177.833C77.8531 177.868 78.089 178.126 78.089 178.435V229.844C78.089 231.406 79.4171 232.734 81.0577 232.734H98.6359C100.276 232.734 101.605 231.406 101.605 229.766V178.647C101.605 178.316 101.873 178.047 102.205 178.047H159.105C160.901 178.047 162.62 178.75 163.87 180L182.698 198.828C184.339 200.469 184.808 202.891 183.87 205L173.714 228.672C172.776 230.547 174.183 232.734 176.292 232.734H193.323C194.495 232.734 195.589 232.031 195.98 230.938L215.667 184.922C217.698 180.391 218.714 175.469 218.714 170.547V135.078C218.714 107.031 195.98 84.2969 167.933 84.2969Z" fill="url(#paint16_linear_561_4812)"/>
<path d="M167.933 84.2969C160.276 84.2969 152.62 86.0156 145.745 89.375L108.48 107.5C105.276 109.063 101.605 106.719 101.605 103.203V92.8125C101.605 83.0469 97.9327 74.1406 91.9171 67.3438L60.2765 32.1094C58.3234 29.9219 54.6515 31.25 54.6515 34.2188V54.7935C54.6515 55.143 54.4096 55.4452 54.0707 55.5306C39.7384 59.1426 28.5183 73.7181 25.589 88.75C25.1984 90.7031 23.4796 92.1094 21.5265 92.1094C18.2452 92.1094 15.589 94.7656 15.589 98.0469V99.7656C15.589 116.908 29.3272 130.845 46.3931 131.166C46.7244 131.172 46.9952 131.441 46.9952 131.772V143.594C46.9952 161.299 60.3088 175.867 77.5464 177.833C77.8531 177.868 78.089 178.126 78.089 178.435V229.844C78.089 231.406 79.4171 232.734 81.0577 232.734H98.6359C100.276 232.734 101.605 231.406 101.605 229.766V178.647C101.605 178.316 101.873 178.047 102.205 178.047H159.105C160.901 178.047 162.62 178.75 163.87 180L182.698 198.828C184.339 200.469 184.808 202.891 183.87 205L173.714 228.672C172.776 230.547 174.183 232.734 176.292 232.734H193.323C194.495 232.734 195.589 232.031 195.98 230.938L215.667 184.922C217.698 180.391 218.714 175.469 218.714 170.547V135.078C218.714 107.031 195.98 84.2969 167.933 84.2969Z" fill="url(#paint17_radial_561_4812)"/>
<path d="M167.933 84.2969C160.276 84.2969 152.62 86.0156 145.745 89.375L108.48 107.5C105.276 109.063 101.605 106.719 101.605 103.203V92.8125C101.605 83.0469 97.9327 74.1406 91.9171 67.3438L60.2765 32.1094C58.3234 29.9219 54.6515 31.25 54.6515 34.2188V54.7935C54.6515 55.143 54.4096 55.4452 54.0707 55.5306C39.7384 59.1426 28.5183 73.7181 25.589 88.75C25.1984 90.7031 23.4796 92.1094 21.5265 92.1094C18.2452 92.1094 15.589 94.7656 15.589 98.0469V99.7656C15.589 116.908 29.3272 130.845 46.3931 131.166C46.7244 131.172 46.9952 131.441 46.9952 131.772V143.594C46.9952 161.299 60.3088 175.867 77.5464 177.833C77.8531 177.868 78.089 178.126 78.089 178.435V229.844C78.089 231.406 79.4171 232.734 81.0577 232.734H98.6359C100.276 232.734 101.605 231.406 101.605 229.766V178.647C101.605 178.316 101.873 178.047 102.205 178.047H159.105C160.901 178.047 162.62 178.75 163.87 180L182.698 198.828C184.339 200.469 184.808 202.891 183.87 205L173.714 228.672C172.776 230.547 174.183 232.734 176.292 232.734H193.323C194.495 232.734 195.589 232.031 195.98 230.938L215.667 184.922C217.698 180.391 218.714 175.469 218.714 170.547V135.078C218.714 107.031 195.98 84.2969 167.933 84.2969Z" fill="url(#paint18_radial_561_4812)"/>
<path d="M167.933 84.2969C160.276 84.2969 152.62 86.0156 145.745 89.375L108.48 107.5C105.276 109.063 101.605 106.719 101.605 103.203V92.8125C101.605 83.0469 97.9327 74.1406 91.9171 67.3438L60.2765 32.1094C58.3234 29.9219 54.6515 31.25 54.6515 34.2188V54.7935C54.6515 55.143 54.4096 55.4452 54.0707 55.5306C39.7384 59.1426 28.5183 73.7181 25.589 88.75C25.1984 90.7031 23.4796 92.1094 21.5265 92.1094C18.2452 92.1094 15.589 94.7656 15.589 98.0469V99.7656C15.589 116.908 29.3272 130.845 46.3931 131.166C46.7244 131.172 46.9952 131.441 46.9952 131.772V143.594C46.9952 161.299 60.3088 175.867 77.5464 177.833C77.8531 177.868 78.089 178.126 78.089 178.435V229.844C78.089 231.406 79.4171 232.734 81.0577 232.734H98.6359C100.276 232.734 101.605 231.406 101.605 229.766V178.647C101.605 178.316 101.873 178.047 102.205 178.047H159.105C160.901 178.047 162.62 178.75 163.87 180L182.698 198.828C184.339 200.469 184.808 202.891 183.87 205L173.714 228.672C172.776 230.547 174.183 232.734 176.292 232.734H193.323C194.495 232.734 195.589 232.031 195.98 230.938L215.667 184.922C217.698 180.391 218.714 175.469 218.714 170.547V135.078C218.714 107.031 195.98 84.2969 167.933 84.2969Z" fill="url(#paint19_radial_561_4812)"/>
<path d="M101.605 92.8125V103.203C97.5285 105.426 86.7045 117.453 68.4454 126.704C62.2653 129.835 58.3136 131.172 46.9952 131.172C29.6515 131.172 15.589 117.109 15.589 99.7656V98.0469C15.589 94.7656 18.2452 92.1094 21.5265 92.1094C23.4796 92.1094 25.1984 90.7031 25.589 88.75C28.5577 73.5156 40.0421 58.75 54.6515 55.3906V34.2188C54.6515 31.25 58.3234 29.9219 60.2765 32.1094L91.9171 67.3438C97.9327 74.1406 101.605 83.0469 101.605 92.8125Z" fill="url(#paint20_linear_561_4812)"/>
<path d="M28.6359 95.703C29.7296 94.2186 28.714 92.1093 26.839 92.1093H21.5265C18.2452 92.1093 15.589 94.7655 15.589 98.0468V99.7655C15.589 103.463 16.2448 107.014 17.4158 110.279C17.4694 110.428 17.6671 110.457 17.7617 110.33L28.6359 95.703Z" fill="url(#paint21_radial_561_4812)"/>
<path d="M28.6359 95.703C29.7296 94.2186 28.714 92.1093 26.839 92.1093H21.5265C18.2452 92.1093 15.589 94.7655 15.589 98.0468V99.7655C15.589 103.463 16.2448 107.014 17.4158 110.279C17.4694 110.428 17.6671 110.457 17.7617 110.33L28.6359 95.703Z" fill="url(#paint22_linear_561_4812)"/>
<path d="M28.6359 95.703C29.7296 94.2186 28.714 92.1093 26.839 92.1093H21.5265C18.2452 92.1093 15.589 94.7655 15.589 98.0468V99.7655C15.589 103.463 16.2448 107.014 17.4158 110.279C17.4694 110.428 17.6671 110.457 17.7617 110.33L28.6359 95.703Z" fill="url(#paint23_linear_561_4812)"/>
<path d="M28.6359 95.703C29.7296 94.2186 28.714 92.1093 26.839 92.1093H21.5265C18.2452 92.1093 15.589 94.7655 15.589 98.0468V99.7655C15.589 103.463 16.2448 107.014 17.4158 110.279C17.4694 110.428 17.6671 110.457 17.7617 110.33L28.6359 95.703Z" fill="url(#paint24_linear_561_4812)"/>
<g filter="url(#filter0_f_561_4812)">
<path d="M95.1788 172.968V225.581" stroke="url(#paint25_linear_561_4812)" stroke-width="0.3" stroke-linecap="round"/>
</g>
<g filter="url(#filter1_f_561_4812)">
<path d="M120.149 184.938L129.851 223.911" stroke="url(#paint26_linear_561_4812)" stroke-width="0.2"/>
</g>
<g filter="url(#filter2_f_561_4812)">
<path d="M160.618 186.396L151.341 226.191" stroke="url(#paint27_linear_561_4812)" stroke-opacity="0.5" stroke-width="0.2"/>
</g>
<g filter="url(#filter3_f_561_4812)">
<path d="M163.66 96.6742C171.595 95.8197 181.464 97.0005 191.492 102.778C202.723 109.247 206.751 120.6 206.751 129.511V176.142" stroke="url(#paint28_linear_561_4812)" stroke-linecap="round"/>
</g>
<g filter="url(#filter4_f_561_4812)">
<path d="M205.53 175.165V184.443L189.661 222.773" stroke="url(#paint29_linear_561_4812)" stroke-width="0.5" stroke-linecap="round"/>
</g>
<g filter="url(#filter5_f_561_4812)">
<path d="M80.3663 83.7213L59.5343 35.517L95.2624 80.5967C95.6826 81.1269 95.9112 81.7836 95.9112 82.4601V117.501C95.9112 118.606 95.0158 119.501 93.9112 119.501H82.5304C81.4258 119.501 80.5304 118.606 80.5304 117.501V84.5147C80.5304 84.2418 80.4745 83.9718 80.3663 83.7213Z" fill="url(#paint30_linear_561_4812)"/>
</g>
<g filter="url(#filter6_f_561_4812)">
<rect x="45.4085" y="84.2231" width="7.56836" height="15.7471" rx="3.78418" fill="#47387B"/>
</g>
<rect x="46.9954" y="84.2231" width="7.56836" height="15.7471" rx="3.78418" fill="url(#paint31_linear_561_4812)"/>
<rect x="46.9954" y="84.2231" width="7.56836" height="15.7471" rx="3.78418" fill="url(#paint32_linear_561_4812)"/>
<g filter="url(#filter7_f_561_4812)">
<path d="M171.595 28.4369C180.221 26.8907 202.601 28.4369 215.296 41.1322C233.748 59.5846 229.7 92.1576 215.296 108.515" stroke="url(#paint33_linear_561_4812)" stroke-width="0.3" stroke-linecap="round"/>
</g>
<g filter="url(#filter8_f_561_4812)">
<path d="M84.4727 155.078V112.597L159.18 120.898L84.4727 155.078Z" fill="url(#paint34_linear_561_4812)"/>
</g>
<defs>
<filter id="filter0_f_561_4812" x="94.0288" y="171.818" width="2.3" height="54.9124" filterUnits="userSpaceOnUse" color-interpolation-filters="sRGB">
<feFlood flood-opacity="0" result="BackgroundImageFix"/>
<feBlend mode="normal" in="SourceGraphic" in2="BackgroundImageFix" result="shape"/>
<feGaussianBlur stdDeviation="0.5" result="effect1_foregroundBlur_561_4812"/>
</filter>
<filter id="filter1_f_561_4812" x="119.352" y="184.214" width="11.2956" height="40.4217" filterUnits="userSpaceOnUse" color-interpolation-filters="sRGB">
<feFlood flood-opacity="0" result="BackgroundImageFix"/>
<feBlend mode="normal" in="SourceGraphic" in2="BackgroundImageFix" result="shape"/>
<feGaussianBlur stdDeviation="0.35" result="effect1_foregroundBlur_561_4812"/>
</filter>
<filter id="filter2_f_561_4812" x="150.543" y="185.673" width="10.8721" height="41.2403" filterUnits="userSpaceOnUse" color-interpolation-filters="sRGB">
<feFlood flood-opacity="0" result="BackgroundImageFix"/>
<feBlend mode="normal" in="SourceGraphic" in2="BackgroundImageFix" result="shape"/>
<feGaussianBlur stdDeviation="0.35" result="effect1_foregroundBlur_561_4812"/>
</filter>
<filter id="filter3_f_561_4812" x="160.16" y="92.9251" width="50.0909" height="86.7169" filterUnits="userSpaceOnUse" color-interpolation-filters="sRGB">
<feFlood flood-opacity="0" result="BackgroundImageFix"/>
<feBlend mode="normal" in="SourceGraphic" in2="BackgroundImageFix" result="shape"/>
<feGaussianBlur stdDeviation="1.5" result="effect1_foregroundBlur_561_4812"/>
</filter>
<filter id="filter4_f_561_4812" x="187.411" y="172.915" width="20.3692" height="52.1075" filterUnits="userSpaceOnUse" color-interpolation-filters="sRGB">
<feFlood flood-opacity="0" result="BackgroundImageFix"/>
<feBlend mode="normal" in="SourceGraphic" in2="BackgroundImageFix" result="shape"/>
<feGaussianBlur stdDeviation="1" result="effect1_foregroundBlur_561_4812"/>
</filter>
<filter id="filter5_f_561_4812" x="58.5343" y="34.517" width="38.3769" height="85.9844" filterUnits="userSpaceOnUse" color-interpolation-filters="sRGB">
<feFlood flood-opacity="0" result="BackgroundImageFix"/>
<feBlend mode="normal" in="SourceGraphic" in2="BackgroundImageFix" result="shape"/>
<feGaussianBlur stdDeviation="0.5" result="effect1_foregroundBlur_561_4812"/>
</filter>
<filter id="filter6_f_561_4812" x="44.9085" y="83.7231" width="8.56836" height="16.7471" filterUnits="userSpaceOnUse" color-interpolation-filters="sRGB">
<feFlood flood-opacity="0" result="BackgroundImageFix"/>
<feBlend mode="normal" in="SourceGraphic" in2="BackgroundImageFix" result="shape"/>
<feGaussianBlur stdDeviation="0.25" result="effect1_foregroundBlur_561_4812"/>
</filter>
<filter id="filter7_f_561_4812" x="170.845" y="27.1947" width="57.5689" height="82.0704" filterUnits="userSpaceOnUse" color-interpolation-filters="sRGB">
<feFlood flood-opacity="0" result="BackgroundImageFix"/>
<feBlend mode="normal" in="SourceGraphic" in2="BackgroundImageFix" result="shape"/>
<feGaussianBlur stdDeviation="0.3" result="effect1_foregroundBlur_561_4812"/>
</filter>
<filter id="filter8_f_561_4812" x="81.9727" y="110.097" width="79.707" height="47.4805" filterUnits="userSpaceOnUse" color-interpolation-filters="sRGB">
<feFlood flood-opacity="0" result="BackgroundImageFix"/>
<feBlend mode="normal" in="SourceGraphic" in2="BackgroundImageFix" result="shape"/>
<feGaussianBlur stdDeviation="1.25" result="effect1_foregroundBlur_561_4812"/>
</filter>
<linearGradient id="paint0_linear_561_4812" x1="118.652" y1="255.664" x2="106.201" y2="201.22" gradientUnits="userSpaceOnUse">
<stop stop-color="#665895"/>
<stop offset="1" stop-color="#573787"/>
</linearGradient>
<linearGradient id="paint1_linear_561_4812" x1="97.6202" y1="191.308" x2="109.325" y2="189.641" gradientUnits="userSpaceOnUse">
<stop stop-color="#200D3C"/>
<stop offset="1" stop-color="#200D3C" stop-opacity="0"/>
</linearGradient>
<linearGradient id="paint2_linear_561_4812" x1="132.813" y1="181.933" x2="118.559" y2="186.996" gradientUnits="userSpaceOnUse">
<stop stop-color="#200D3C"/>
<stop offset="1" stop-color="#200D3C" stop-opacity="0"/>
</linearGradient>
<linearGradient id="paint3_linear_561_4812" x1="93.75" y1="162.89" x2="121.819" y2="211.86" gradientUnits="userSpaceOnUse">
<stop stop-color="#200D3C"/>
<stop offset="1" stop-color="#200D3C" stop-opacity="0"/>
</linearGradient>
<linearGradient id="paint4_linear_561_4812" x1="120.85" y1="240.283" x2="121.546" y2="217.599" gradientUnits="userSpaceOnUse">
<stop stop-color="#4F2A7F"/>
<stop offset="0.0001" stop-color="#592C87"/>
<stop offset="0.639785" stop-color="#592C87" stop-opacity="0"/>
</linearGradient>
<linearGradient id="paint5_linear_561_4812" x1="103.271" y1="144.091" x2="115.234" y2="216.113" gradientUnits="userSpaceOnUse">
<stop stop-color="#4E4360"/>
<stop offset="1" stop-color="#3A2953" stop-opacity="0"/>
</linearGradient>
<linearGradient id="paint6_linear_561_4812" x1="163.796" y1="255.664" x2="151.345" y2="201.22" gradientUnits="userSpaceOnUse">
<stop stop-color="#665895"/>
<stop offset="1" stop-color="#573787"/>
</linearGradient>
<linearGradient id="paint7_linear_561_4812" x1="141.113" y1="187.06" x2="154.594" y2="189.589" gradientUnits="userSpaceOnUse">
<stop stop-color="#200D3C"/>
<stop offset="1" stop-color="#200D3C" stop-opacity="0"/>
</linearGradient>
<linearGradient id="paint8_linear_561_4812" x1="188.232" y1="187.304" x2="163.552" y2="187.306" gradientUnits="userSpaceOnUse">
<stop stop-color="#200D3C"/>
<stop offset="1" stop-color="#200D3C" stop-opacity="0"/>
</linearGradient>
<linearGradient id="paint9_linear_561_4812" x1="181.058" y1="162.646" x2="167.007" y2="213.113" gradientUnits="userSpaceOnUse">
<stop stop-color="#200D3C"/>
<stop offset="1" stop-color="#200D3C" stop-opacity="0"/>
</linearGradient>
<linearGradient id="paint10_linear_561_4812" x1="165.993" y1="240.283" x2="166.689" y2="217.599" gradientUnits="userSpaceOnUse">
<stop stop-color="#4F2A7F"/>
<stop offset="0.0001" stop-color="#592C87"/>
<stop offset="0.639785" stop-color="#592C87" stop-opacity="0"/>
</linearGradient>
<linearGradient id="paint11_linear_561_4812" x1="175.537" y1="167.109" x2="161.911" y2="225.634" gradientUnits="userSpaceOnUse">
<stop stop-color="#3A2953"/>
<stop offset="1" stop-color="#3A2953" stop-opacity="0"/>
</linearGradient>
<radialGradient id="paint12_radial_561_4812" cx="0" cy="0" r="1" gradientUnits="userSpaceOnUse" gradientTransform="translate(222.656 14.4527) rotate(109.335) scale(88.4867 88.4867)">
<stop stop-color="#655D99"/>
<stop offset="1" stop-color="#5C4483"/>
</radialGradient>
<radialGradient id="paint13_radial_561_4812" cx="0" cy="0" r="1" gradientUnits="userSpaceOnUse" gradientTransform="translate(159.652 33.8081) rotate(5.71438) scale(29.4235 20.092)">
<stop stop-color="#473881"/>
<stop offset="1" stop-color="#473881" stop-opacity="0"/>
</radialGradient>
<radialGradient id="paint14_radial_561_4812" cx="0" cy="0" r="1" gradientUnits="userSpaceOnUse" gradientTransform="translate(192.835 88.0073) rotate(-30.9638) scale(45.5543 80.678)">
<stop stop-color="#473881"/>
<stop offset="1" stop-color="#473881" stop-opacity="0"/>
</radialGradient>
<radialGradient id="paint15_radial_561_4812" cx="0" cy="0" r="1" gradientUnits="userSpaceOnUse" gradientTransform="translate(205.042 67.0112) rotate(-20.3655) scale(34.3753 68.4383)">
<stop stop-color="#473881"/>
<stop offset="0.591785" stop-color="#473881" stop-opacity="0"/>
</radialGradient>
<linearGradient id="paint16_linear_561_4812" x1="117.151" y1="83.8085" x2="117.151" y2="225.39" gradientUnits="userSpaceOnUse">
<stop stop-color="#665895"/>
<stop offset="1" stop-color="#573787"/>
</linearGradient>
<radialGradient id="paint17_radial_561_4812" cx="0" cy="0" r="1" gradientUnits="userSpaceOnUse" gradientTransform="translate(135.062 87.4908) rotate(65.799) scale(30.6812 71.8106)">
<stop stop-color="#473881"/>
<stop offset="0.8" stop-color="#473881" stop-opacity="0"/>
</radialGradient>
<radialGradient id="paint18_radial_561_4812" cx="0" cy="0" r="1" gradientUnits="userSpaceOnUse" gradientTransform="translate(141.979 190.625) rotate(-88.4656) scale(35.2294 52.6855)">
<stop stop-color="#4F2A7F"/>
<stop offset="1" stop-color="#4F2A7F" stop-opacity="0"/>
</radialGradient>
<radialGradient id="paint19_radial_561_4812" cx="0" cy="0" r="1" gradientUnits="userSpaceOnUse" gradientTransform="translate(70.76 178.677) rotate(-49.3987) scale(20.2926 22.6971)">
<stop stop-color="#4F2A7F"/>
<stop offset="0.804856" stop-color="#4F2A7F" stop-opacity="0"/>
</radialGradient>
<linearGradient id="paint20_linear_561_4812" x1="51.2335" y1="116.816" x2="35.3644" y2="138.789" gradientUnits="userSpaceOnUse">
<stop stop-color="#53378B" stop-opacity="0"/>
<stop offset="0.848946" stop-color="#53378B"/>
</linearGradient>
<radialGradient id="paint21_radial_561_4812" cx="0" cy="0" r="1" gradientUnits="userSpaceOnUse" gradientTransform="translate(25.7208 95.5756) rotate(140.717) scale(9.14703 6.33524)">
<stop offset="0.0215667" stop-color="#6B5E60"/>
<stop offset="0.990975" stop-color="#433338"/>
</radialGradient>
<linearGradient id="paint22_linear_561_4812" x1="31.1949" y1="113.865" x2="31.1949" y2="98.242" gradientUnits="userSpaceOnUse">
<stop stop-color="#432541"/>
<stop offset="1" stop-color="#552D52" stop-opacity="0"/>
</linearGradient>
<linearGradient id="paint23_linear_561_4812" x1="29.086" y1="110.625" x2="19.2871" y2="103.808" gradientUnits="userSpaceOnUse">
<stop/>
<stop offset="1" stop-opacity="0"/>
</linearGradient>
<linearGradient id="paint24_linear_561_4812" x1="19.8975" y1="113.574" x2="19.8975" y2="97.5825" gradientUnits="userSpaceOnUse">
<stop/>
<stop offset="0.625954" stop-opacity="0"/>
</linearGradient>
<linearGradient id="paint25_linear_561_4812" x1="95.8189" y1="190.189" x2="122.578" y2="219.462" gradientUnits="userSpaceOnUse">
<stop stop-color="#9784C0"/>
<stop offset="1" stop-color="#8776AC" stop-opacity="0"/>
</linearGradient>
<linearGradient id="paint26_linear_561_4812" x1="126.359" y1="197.694" x2="130.145" y2="230.329" gradientUnits="userSpaceOnUse">
<stop stop-color="#9784C0"/>
<stop offset="1" stop-color="#8776AC" stop-opacity="0"/>
</linearGradient>
<linearGradient id="paint27_linear_561_4812" x1="157.279" y1="199.421" x2="161.4" y2="232.682" gradientUnits="userSpaceOnUse">
<stop stop-color="#9784C0"/>
<stop offset="1" stop-color="#8776AC" stop-opacity="0"/>
</linearGradient>
<linearGradient id="paint28_linear_561_4812" x1="191.242" y1="122.517" x2="194.846" y2="189.976" gradientUnits="userSpaceOnUse">
<stop stop-color="#9784C0"/>
<stop offset="1" stop-color="#8776AC" stop-opacity="0"/>
</linearGradient>
<linearGradient id="paint29_linear_561_4812" x1="199.819" y1="190.748" x2="203.293" y2="230.848" gradientUnits="userSpaceOnUse">
<stop stop-color="#9784C0"/>
<stop offset="1" stop-color="#8776AC" stop-opacity="0"/>
</linearGradient>
<linearGradient id="paint30_linear_561_4812" x1="77.7228" y1="35.517" x2="77.7228" y2="122.851" gradientUnits="userSpaceOnUse">
<stop stop-color="#9087B1"/>
<stop offset="1" stop-color="#9087B1" stop-opacity="0"/>
</linearGradient>
<linearGradient id="paint31_linear_561_4812" x1="53.4994" y1="92.0966" x2="49.2554" y2="92.0966" gradientUnits="userSpaceOnUse">
<stop offset="0.223958" stop-color="#5B4C50"/>
<stop offset="1" stop-color="#342132"/>
</linearGradient>
<linearGradient id="paint32_linear_561_4812" x1="55.7463" y1="102.725" x2="55.7463" y2="89.4388" gradientUnits="userSpaceOnUse">
<stop stop-color="#401E3E"/>
<stop offset="1" stop-color="#552D52" stop-opacity="0"/>
</linearGradient>
<linearGradient id="paint33_linear_561_4812" x1="207.484" y1="54.3158" x2="210.316" y2="122.574" gradientUnits="userSpaceOnUse">
<stop stop-color="#8776AC"/>
<stop offset="1" stop-color="#8776AC" stop-opacity="0"/>
</linearGradient>
<linearGradient id="paint34_linear_561_4812" x1="61.0352" y1="156.441" x2="153.809" y2="156.441" gradientUnits="userSpaceOnUse">
<stop stop-color="#9087B1" stop-opacity="0.5"/>
<stop offset="1" stop-color="#9087B1" stop-opacity="0"/>
</linearGradient>
</defs>
</svg>
