<svg width="250" height="250" viewBox="0 0 250 250" fill="none" xmlns="http://www.w3.org/2000/svg">
<path d="M27.832 114.697C24.6289 114.697 21.9727 112.041 21.9727 108.838V107.041C21.9727 103.447 24.8633 100.635 28.3789 100.635H33.6914V108.838C33.6914 112.041 31.0352 114.697 27.832 114.697Z" fill="url(#paint0_linear_561_4791)"/>
<path d="M190.879 28.7598C168.77 28.291 150.41 44.4629 147.363 65.6348C147.207 66.8066 148.145 67.8223 149.316 67.8223H151.348C157.285 67.8223 162.91 64.541 165.645 59.2285C170.332 50.0098 180.098 43.8379 191.27 44.3848C205.176 45.0098 216.504 56.2598 217.285 70.2441C218.066 85.791 205.879 98.6816 190.645 99.0723V114.697C214.473 114.307 233.613 94.541 232.91 70.4785C232.285 47.7441 213.613 29.2285 190.879 28.7598Z" fill="url(#paint1_radial_561_4791)"/>
<path d="M190.879 28.7598C168.77 28.291 150.41 44.4629 147.363 65.6348C147.207 66.8066 148.145 67.8223 149.316 67.8223H151.348C157.285 67.8223 162.91 64.541 165.645 59.2285C170.332 50.0098 180.098 43.8379 191.27 44.3848C205.176 45.0098 216.504 56.2598 217.285 70.2441C218.066 85.791 205.879 98.6816 190.645 99.0723V114.697C214.473 114.307 233.613 94.541 232.91 70.4785C232.285 47.7441 213.613 29.2285 190.879 28.7598Z" fill="url(#paint2_radial_561_4791)"/>
<path d="M190.879 28.7598C168.77 28.291 150.41 44.4629 147.363 65.6348C147.207 66.8066 148.145 67.8223 149.316 67.8223H151.348C157.285 67.8223 162.91 64.541 165.645 59.2285C170.332 50.0098 180.098 43.8379 191.27 44.3848C205.176 45.0098 216.504 56.2598 217.285 70.2441C218.066 85.791 205.879 98.6816 190.645 99.0723V114.697C214.473 114.307 233.613 94.541 232.91 70.4785C232.285 47.7441 213.613 29.2285 190.879 28.7598Z" fill="url(#paint3_radial_561_4791)"/>
<path d="M177.832 153.76H154.395L139.16 221.65C138.848 222.9 139.785 223.994 141.035 223.994H160.098C161.27 223.994 162.207 223.213 162.441 222.119L177.832 153.76Z" fill="url(#paint4_linear_561_4791)"/>
<path d="M177.832 153.76H154.395L139.16 221.65C138.848 222.9 139.785 223.994 141.035 223.994H160.098C161.27 223.994 162.207 223.213 162.441 222.119L177.832 153.76Z" fill="url(#paint5_linear_561_4791)"/>
<path d="M177.832 153.76H154.395L139.16 221.65C138.848 222.9 139.785 223.994 141.035 223.994H160.098C161.27 223.994 162.207 223.213 162.441 222.119L177.832 153.76Z" fill="url(#paint6_linear_561_4791)"/>
<path d="M177.832 153.76H154.395L139.16 221.65C138.848 222.9 139.785 223.994 141.035 223.994H160.098C161.27 223.994 162.207 223.213 162.441 222.119L177.832 153.76Z" fill="url(#paint7_linear_561_4791)"/>
<path d="M177.832 153.76H154.395L139.16 221.65C138.848 222.9 139.785 223.994 141.035 223.994H160.098C161.27 223.994 162.207 223.213 162.441 222.119L177.832 153.76Z" fill="url(#paint8_linear_561_4791)"/>
<g filter="url(#filter0_f_561_4791)">
<path d="M169.922 167.724L158.466 217.285" stroke="url(#paint9_linear_561_4791)" stroke-opacity="0.25" stroke-width="0.2"/>
</g>
<path d="M96.5039 153.76H119.941L131.348 221.807C131.504 222.979 130.566 224.072 129.395 224.072H110.332C109.16 224.072 108.145 223.213 107.91 222.041L96.5039 153.76Z" fill="url(#paint10_linear_561_4791)"/>
<path d="M96.5039 153.76H119.941L131.348 221.807C131.504 222.979 130.566 224.072 129.395 224.072H110.332C109.16 224.072 108.145 223.213 107.91 222.041L96.5039 153.76Z" fill="url(#paint11_linear_561_4791)"/>
<path d="M96.5039 153.76H119.941L131.348 221.807C131.504 222.979 130.566 224.072 129.395 224.072H110.332C109.16 224.072 108.145 223.213 107.91 222.041L96.5039 153.76Z" fill="url(#paint12_linear_561_4791)"/>
<path d="M96.5039 153.76H119.941L131.348 221.807C131.504 222.979 130.566 224.072 129.395 224.072H110.332C109.16 224.072 108.145 223.213 107.91 222.041L96.5039 153.76Z" fill="url(#paint13_linear_561_4791)"/>
<path d="M96.5039 153.76H119.941L131.348 221.807C131.504 222.979 130.566 224.072 129.395 224.072H110.332C109.16 224.072 108.145 223.213 107.91 222.041L96.5039 153.76Z" fill="url(#paint14_linear_561_4791)"/>
<path d="M219.707 165.791L210.566 159.697C209.941 159.307 209.473 158.525 209.473 157.666V116.416C209.473 97.1973 193.145 82.041 174.004 83.5254L120.723 90.0879C109.238 91.5723 106.113 80.4004 104.238 75.791L94.4727 51.416C92.832 47.1973 88.6914 44.3848 84.1602 44.3848H69.0039C55.1758 44.3848 43.0664 53.8379 39.707 67.2754L39.0039 70.0879C38.2227 73.3691 35.2539 75.6348 31.8945 75.6348H20.0977C16.8164 75.6348 14.1602 78.291 14.1602 81.5723V83.4473C14.1602 96.416 24.6289 106.885 37.5977 106.885H50.8008C52.1289 106.885 53.2227 107.979 53.2227 109.307V123.994C53.2227 138.057 58.8477 151.494 68.8477 161.338V169.385H58.6914C47.0508 169.385 37.5977 178.838 37.5977 190.557V195.791C37.5977 198.447 39.7852 200.635 42.5195 200.635H56.1914C58.8477 200.635 61.0352 198.447 61.0352 195.791V192.822H70.1758C82.4414 192.822 92.2852 182.979 92.2852 170.713V162.072C92.2852 161.796 92.509 161.572 92.7852 161.572H145.723C151.6 161.572 157.254 160.304 162.247 157.987C162.412 157.911 162.602 158.029 162.608 158.21C162.99 169.85 170.141 180.214 181.035 184.541L200.176 192.197C201.113 192.588 201.738 193.447 201.738 194.463V221.65C201.738 222.979 202.832 224.072 204.16 224.072H222.754C224.082 224.072 225.176 222.979 225.176 221.65V175.947C225.098 171.885 223.066 168.057 219.707 165.791Z" fill="url(#paint15_linear_561_4791)"/>
<path d="M219.707 165.791L210.566 159.697C209.941 159.307 209.473 158.525 209.473 157.666V116.416C209.473 97.1973 193.145 82.041 174.004 83.5254L120.723 90.0879C109.238 91.5723 106.113 80.4004 104.238 75.791L94.4727 51.416C92.832 47.1973 88.6914 44.3848 84.1602 44.3848H69.0039C55.1758 44.3848 43.0664 53.8379 39.707 67.2754L39.0039 70.0879C38.2227 73.3691 35.2539 75.6348 31.8945 75.6348H20.0977C16.8164 75.6348 14.1602 78.291 14.1602 81.5723V83.4473C14.1602 96.416 24.6289 106.885 37.5977 106.885H50.8008C52.1289 106.885 53.2227 107.979 53.2227 109.307V123.994C53.2227 138.057 58.8477 151.494 68.8477 161.338V169.385H58.6914C47.0508 169.385 37.5977 178.838 37.5977 190.557V195.791C37.5977 198.447 39.7852 200.635 42.5195 200.635H56.1914C58.8477 200.635 61.0352 198.447 61.0352 195.791V192.822H70.1758C82.4414 192.822 92.2852 182.979 92.2852 170.713V162.072C92.2852 161.796 92.509 161.572 92.7852 161.572H145.723C151.6 161.572 157.254 160.304 162.247 157.987C162.412 157.911 162.602 158.029 162.608 158.21C162.99 169.85 170.141 180.214 181.035 184.541L200.176 192.197C201.113 192.588 201.738 193.447 201.738 194.463V221.65C201.738 222.979 202.832 224.072 204.16 224.072H222.754C224.082 224.072 225.176 222.979 225.176 221.65V175.947C225.098 171.885 223.066 168.057 219.707 165.791Z" fill="url(#paint16_radial_561_4791)"/>
<path d="M219.707 165.791L210.566 159.697C209.941 159.307 209.473 158.525 209.473 157.666V116.416C209.473 97.1973 193.145 82.041 174.004 83.5254L120.723 90.0879C109.238 91.5723 106.113 80.4004 104.238 75.791L94.4727 51.416C92.832 47.1973 88.6914 44.3848 84.1602 44.3848H69.0039C55.1758 44.3848 43.0664 53.8379 39.707 67.2754L39.0039 70.0879C38.2227 73.3691 35.2539 75.6348 31.8945 75.6348H20.0977C16.8164 75.6348 14.1602 78.291 14.1602 81.5723V83.4473C14.1602 96.416 24.6289 106.885 37.5977 106.885H50.8008C52.1289 106.885 53.2227 107.979 53.2227 109.307V123.994C53.2227 138.057 58.8477 151.494 68.8477 161.338V169.385H58.6914C47.0508 169.385 37.5977 178.838 37.5977 190.557V195.791C37.5977 198.447 39.7852 200.635 42.5195 200.635H56.1914C58.8477 200.635 61.0352 198.447 61.0352 195.791V192.822H70.1758C82.4414 192.822 92.2852 182.979 92.2852 170.713V162.072C92.2852 161.796 92.509 161.572 92.7852 161.572H145.723C151.6 161.572 157.254 160.304 162.247 157.987C162.412 157.911 162.602 158.029 162.608 158.21C162.99 169.85 170.141 180.214 181.035 184.541L200.176 192.197C201.113 192.588 201.738 193.447 201.738 194.463V221.65C201.738 222.979 202.832 224.072 204.16 224.072H222.754C224.082 224.072 225.176 222.979 225.176 221.65V175.947C225.098 171.885 223.066 168.057 219.707 165.791Z" fill="url(#paint17_radial_561_4791)"/>
<path d="M219.707 165.791L210.566 159.697C209.941 159.307 209.473 158.525 209.473 157.666V116.416C209.473 97.1973 193.145 82.041 174.004 83.5254L120.723 90.0879C109.238 91.5723 106.113 80.4004 104.238 75.791L94.4727 51.416C92.832 47.1973 88.6914 44.3848 84.1602 44.3848H69.0039C55.1758 44.3848 43.0664 53.8379 39.707 67.2754L39.0039 70.0879C38.2227 73.3691 35.2539 75.6348 31.8945 75.6348H20.0977C16.8164 75.6348 14.1602 78.291 14.1602 81.5723V83.4473C14.1602 96.416 24.6289 106.885 37.5977 106.885H50.8008C52.1289 106.885 53.2227 107.979 53.2227 109.307V123.994C53.2227 138.057 58.8477 151.494 68.8477 161.338V169.385H58.6914C47.0508 169.385 37.5977 178.838 37.5977 190.557V195.791C37.5977 198.447 39.7852 200.635 42.5195 200.635H56.1914C58.8477 200.635 61.0352 198.447 61.0352 195.791V192.822H70.1758C82.4414 192.822 92.2852 182.979 92.2852 170.713V162.072C92.2852 161.796 92.509 161.572 92.7852 161.572H145.723C151.6 161.572 157.254 160.304 162.247 157.987C162.412 157.911 162.602 158.029 162.608 158.21C162.99 169.85 170.141 180.214 181.035 184.541L200.176 192.197C201.113 192.588 201.738 193.447 201.738 194.463V221.65C201.738 222.979 202.832 224.072 204.16 224.072H222.754C224.082 224.072 225.176 222.979 225.176 221.65V175.947C225.098 171.885 223.066 168.057 219.707 165.791Z" fill="url(#paint18_radial_561_4791)"/>
<path d="M219.707 165.791L210.566 159.697C209.941 159.307 209.473 158.525 209.473 157.666V116.416C209.473 97.1973 193.145 82.041 174.004 83.5254L120.723 90.0879C109.238 91.5723 106.113 80.4004 104.238 75.791L94.4727 51.416C92.832 47.1973 88.6914 44.3848 84.1602 44.3848H69.0039C55.1758 44.3848 43.0664 53.8379 39.707 67.2754L39.0039 70.0879C38.2227 73.3691 35.2539 75.6348 31.8945 75.6348H20.0977C16.8164 75.6348 14.1602 78.291 14.1602 81.5723V83.4473C14.1602 96.416 24.6289 106.885 37.5977 106.885H50.8008C52.1289 106.885 53.2227 107.979 53.2227 109.307V123.994C53.2227 138.057 58.8477 151.494 68.8477 161.338V169.385H58.6914C47.0508 169.385 37.5977 178.838 37.5977 190.557V195.791C37.5977 198.447 39.7852 200.635 42.5195 200.635H56.1914C58.8477 200.635 61.0352 198.447 61.0352 195.791V192.822H70.1758C82.4414 192.822 92.2852 182.979 92.2852 170.713V162.072C92.2852 161.796 92.509 161.572 92.7852 161.572H145.723C151.6 161.572 157.254 160.304 162.247 157.987C162.412 157.911 162.602 158.029 162.608 158.21C162.99 169.85 170.141 180.214 181.035 184.541L200.176 192.197C201.113 192.588 201.738 193.447 201.738 194.463V221.65C201.738 222.979 202.832 224.072 204.16 224.072H222.754C224.082 224.072 225.176 222.979 225.176 221.65V175.947C225.098 171.885 223.066 168.057 219.707 165.791Z" fill="url(#paint19_radial_561_4791)"/>
<path d="M219.707 165.791L210.566 159.697C209.941 159.307 209.473 158.525 209.473 157.666V116.416C209.473 97.1973 193.145 82.041 174.004 83.5254L120.723 90.0879C109.238 91.5723 106.113 80.4004 104.238 75.791L94.4727 51.416C92.832 47.1973 88.6914 44.3848 84.1602 44.3848H69.0039C55.1758 44.3848 43.0664 53.8379 39.707 67.2754L39.0039 70.0879C38.2227 73.3691 35.2539 75.6348 31.8945 75.6348H20.0977C16.8164 75.6348 14.1602 78.291 14.1602 81.5723V83.4473C14.1602 96.416 24.6289 106.885 37.5977 106.885H50.8008C52.1289 106.885 53.2227 107.979 53.2227 109.307V123.994C53.2227 138.057 58.8477 151.494 68.8477 161.338V169.385H58.6914C47.0508 169.385 37.5977 178.838 37.5977 190.557V195.791C37.5977 198.447 39.7852 200.635 42.5195 200.635H56.1914C58.8477 200.635 61.0352 198.447 61.0352 195.791V192.822H70.1758C82.4414 192.822 92.2852 182.979 92.2852 170.713V162.072C92.2852 161.796 92.509 161.572 92.7852 161.572H145.723C151.6 161.572 157.254 160.304 162.247 157.987C162.412 157.911 162.602 158.029 162.608 158.21C162.99 169.85 170.141 180.214 181.035 184.541L200.176 192.197C201.113 192.588 201.738 193.447 201.738 194.463V221.65C201.738 222.979 202.832 224.072 204.16 224.072H222.754C224.082 224.072 225.176 222.979 225.176 221.65V175.947C225.098 171.885 223.066 168.057 219.707 165.791Z" fill="url(#paint20_linear_561_4791)"/>
<path d="M219.707 165.791L210.566 159.697C209.941 159.307 209.473 158.525 209.473 157.666V116.416C209.473 97.1973 193.145 82.041 174.004 83.5254L120.723 90.0879C109.238 91.5723 106.113 80.4004 104.238 75.791L94.4727 51.416C92.832 47.1973 88.6914 44.3848 84.1602 44.3848H69.0039C55.1758 44.3848 43.0664 53.8379 39.707 67.2754L39.0039 70.0879C38.2227 73.3691 35.2539 75.6348 31.8945 75.6348H20.0977C16.8164 75.6348 14.1602 78.291 14.1602 81.5723V83.4473C14.1602 96.416 24.6289 106.885 37.5977 106.885H50.8008C52.1289 106.885 53.2227 107.979 53.2227 109.307V123.994C53.2227 138.057 58.8477 151.494 68.8477 161.338V169.385H58.6914C47.0508 169.385 37.5977 178.838 37.5977 190.557V195.791C37.5977 198.447 39.7852 200.635 42.5195 200.635H56.1914C58.8477 200.635 61.0352 198.447 61.0352 195.791V192.822H70.1758C82.4414 192.822 92.2852 182.979 92.2852 170.713V162.072C92.2852 161.796 92.509 161.572 92.7852 161.572H145.723C151.6 161.572 157.254 160.304 162.247 157.987C162.412 157.911 162.602 158.029 162.608 158.21C162.99 169.85 170.141 180.214 181.035 184.541L200.176 192.197C201.113 192.588 201.738 193.447 201.738 194.463V221.65C201.738 222.979 202.832 224.072 204.16 224.072H222.754C224.082 224.072 225.176 222.979 225.176 221.65V175.947C225.098 171.885 223.066 168.057 219.707 165.791Z" fill="url(#paint21_radial_561_4791)"/>
<path d="M219.707 165.791L210.566 159.697C209.941 159.307 209.473 158.525 209.473 157.666V116.416C209.473 97.1973 193.145 82.041 174.004 83.5254L120.723 90.0879C109.238 91.5723 106.113 80.4004 104.238 75.791L94.4727 51.416C92.832 47.1973 88.6914 44.3848 84.1602 44.3848H69.0039C55.1758 44.3848 43.0664 53.8379 39.707 67.2754L39.0039 70.0879C38.2227 73.3691 35.2539 75.6348 31.8945 75.6348H20.0977C16.8164 75.6348 14.1602 78.291 14.1602 81.5723V83.4473C14.1602 96.416 24.6289 106.885 37.5977 106.885H50.8008C52.1289 106.885 53.2227 107.979 53.2227 109.307V123.994C53.2227 138.057 58.8477 151.494 68.8477 161.338V169.385H58.6914C47.0508 169.385 37.5977 178.838 37.5977 190.557V195.791C37.5977 198.447 39.7852 200.635 42.5195 200.635H56.1914C58.8477 200.635 61.0352 198.447 61.0352 195.791V192.822H70.1758C82.4414 192.822 92.2852 182.979 92.2852 170.713V162.072C92.2852 161.796 92.509 161.572 92.7852 161.572H145.723C151.6 161.572 157.254 160.304 162.247 157.987C162.412 157.911 162.602 158.029 162.608 158.21C162.99 169.85 170.141 180.214 181.035 184.541L200.176 192.197C201.113 192.588 201.738 193.447 201.738 194.463V221.65C201.738 222.979 202.832 224.072 204.16 224.072H222.754C224.082 224.072 225.176 222.979 225.176 221.65V175.947C225.098 171.885 223.066 168.057 219.707 165.791Z" fill="url(#paint22_radial_561_4791)"/>
<path d="M219.707 165.791L210.566 159.697C209.941 159.307 209.473 158.525 209.473 157.666V116.416C209.473 97.1973 193.145 82.041 174.004 83.5254L120.723 90.0879C109.238 91.5723 106.113 80.4004 104.238 75.791L94.4727 51.416C92.832 47.1973 88.6914 44.3848 84.1602 44.3848H69.0039C55.1758 44.3848 43.0664 53.8379 39.707 67.2754L39.0039 70.0879C38.2227 73.3691 35.2539 75.6348 31.8945 75.6348H20.0977C16.8164 75.6348 14.1602 78.291 14.1602 81.5723V83.4473C14.1602 96.416 24.6289 106.885 37.5977 106.885H50.8008C52.1289 106.885 53.2227 107.979 53.2227 109.307V123.994C53.2227 138.057 58.8477 151.494 68.8477 161.338V169.385H58.6914C47.0508 169.385 37.5977 178.838 37.5977 190.557V195.791C37.5977 198.447 39.7852 200.635 42.5195 200.635H56.1914C58.8477 200.635 61.0352 198.447 61.0352 195.791V192.822H70.1758C82.4414 192.822 92.2852 182.979 92.2852 170.713V162.072C92.2852 161.796 92.509 161.572 92.7852 161.572H145.723C151.6 161.572 157.254 160.304 162.247 157.987C162.412 157.911 162.602 158.029 162.608 158.21C162.99 169.85 170.141 180.214 181.035 184.541L200.176 192.197C201.113 192.588 201.738 193.447 201.738 194.463V221.65C201.738 222.979 202.832 224.072 204.16 224.072H222.754C224.082 224.072 225.176 222.979 225.176 221.65V175.947C225.098 171.885 223.066 168.057 219.707 165.791Z" fill="url(#paint23_radial_561_4791)"/>
<path d="M53.1921 48.8697V108.925C53.0067 107.775 51.9992 106.885 50.8008 106.885H37.5977C24.6289 106.885 14.1602 96.416 14.1602 83.4473V81.5723C14.1602 78.291 16.8164 75.6348 20.0976 75.6348H31.8945C35.2539 75.6348 38.2227 73.3692 39.0039 70.0879L39.707 67.2754C41.6736 59.409 46.6389 52.9081 53.1921 48.8697Z" fill="url(#paint24_linear_561_4791)"/>
<path d="M162.523 159.995C162.572 159.279 162.598 158.554 162.598 157.822C162.598 151.26 157.285 145.869 150.645 145.869H92.2852V165.479C92.2852 163.321 94.034 161.572 96.1914 161.572H145.723C150.665 161.572 155.449 160.676 159.814 159.013C160.85 158.619 161.99 159.096 162.523 159.995Z" fill="url(#paint25_linear_561_4791)"/>
<g filter="url(#filter1_f_561_4791)">
<path d="M91.7969 82.4707L106.689 118.164" stroke="url(#paint26_linear_561_4791)" stroke-width="2" stroke-linecap="round"/>
</g>
<g filter="url(#filter2_f_561_4791)">
<path d="M66.2164 49.7846C66.1373 49.4689 66.376 49.163 66.7014 49.163H90.7193C95.7757 49.163 99.516 53.9424 98.2692 58.8602L94.1133 75.4148C92.9358 80.3327 88.5027 83.796 83.3771 83.796C78.3207 83.796 73.8876 80.3327 72.6409 75.4148L66.2164 49.7846Z" fill="#D68E5D" fill-opacity="0.5"/>
</g>
<path d="M69.0035 45.0063C68.9243 44.6907 69.163 44.3848 69.4885 44.3848H96.6602C102.363 44.3848 106.582 49.7754 105.176 55.3223L100.488 73.9941C99.1602 79.541 94.1602 83.4473 88.3789 83.4473C82.6758 83.4473 77.6758 79.541 76.2695 73.9941L69.0035 45.0063Z" fill="url(#paint27_linear_561_4791)"/>
<path d="M69.0035 45.0063C68.9243 44.6907 69.163 44.3848 69.4885 44.3848H96.6602C102.363 44.3848 106.582 49.7754 105.176 55.3223L100.488 73.9941C99.1602 79.541 94.1602 83.4473 88.3789 83.4473C82.6758 83.4473 77.6758 79.541 76.2695 73.9941L69.0035 45.0063Z" fill="url(#paint28_radial_561_4791)"/>
<path d="M69.0035 45.0063C68.9243 44.6907 69.163 44.3848 69.4885 44.3848H96.6602C102.363 44.3848 106.582 49.7754 105.176 55.3223L100.488 73.9941C99.1602 79.541 94.1602 83.4473 88.3789 83.4473C82.6758 83.4473 77.6758 79.541 76.2695 73.9941L69.0035 45.0063Z" fill="url(#paint29_linear_561_4791)"/>
<path d="M23.9258 87.3535H20.0195C16.8164 87.3535 14.1602 84.6973 14.1602 81.4941C14.1602 78.291 16.8164 75.6348 20.0195 75.6348H23.9258C27.1289 75.6348 29.7852 78.291 29.7852 81.4941C29.7852 84.6973 27.1289 87.3535 23.9258 87.3535Z" fill="url(#paint30_linear_561_4791)"/>
<path d="M23.9258 87.3535H20.0195C16.8164 87.3535 14.1602 84.6973 14.1602 81.4941C14.1602 78.291 16.8164 75.6348 20.0195 75.6348H23.9258C27.1289 75.6348 29.7852 78.291 29.7852 81.4941C29.7852 84.6973 27.1289 87.3535 23.9258 87.3535Z" fill="url(#paint31_linear_561_4791)"/>
<rect x="53.1006" y="67.8223" width="7.8125" height="15.625" rx="3.90625" fill="url(#paint32_linear_561_4791)"/>
<rect x="53.1006" y="67.8223" width="7.8125" height="15.625" rx="3.90625" fill="url(#paint33_linear_561_4791)"/>
<g filter="url(#filter3_f_561_4791)">
<path d="M223.389 88.6226C236.328 54.1987 209.717 32.7143 189.13 34.6191C177.775 34.6191 166.87 41.2593 161.987 51.0249" stroke="url(#paint34_linear_561_4791)" stroke-width="0.2"/>
</g>
<g filter="url(#filter4_f_561_4791)">
<path d="M115.967 166.503L125 217.285" stroke="url(#paint35_linear_561_4791)" stroke-width="0.2"/>
</g>
<g filter="url(#filter5_f_561_4791)">
<path d="M202.524 116.944C200.961 96.2407 185.719 90.5762 177.255 90.332L164.194 125L202.524 116.944Z" fill="url(#paint36_radial_561_4791)" fill-opacity="0.8"/>
</g>
<g filter="url(#filter6_f_561_4791)">
<path d="M196.533 108.642V165.873C196.533 165.961 196.58 166.043 196.655 166.088L214.477 176.685C214.553 176.73 214.6 176.811 214.6 176.9V212.89" stroke="url(#paint37_linear_561_4791)" stroke-linecap="round"/>
</g>
<g filter="url(#filter7_f_561_4791)">
<path d="M99.3652 51.3911L94.4824 73.9741" stroke="url(#paint38_linear_561_4791)" stroke-width="0.5" stroke-linecap="round"/>
</g>
<defs>
<filter id="filter0_f_561_4791" x="157.968" y="167.302" width="12.4509" height="50.4056" filterUnits="userSpaceOnUse" color-interpolation-filters="sRGB">
<feFlood flood-opacity="0" result="BackgroundImageFix"/>
<feBlend mode="normal" in="SourceGraphic" in2="BackgroundImageFix" result="shape"/>
<feGaussianBlur stdDeviation="0.2" result="effect1_foregroundBlur_561_4791"/>
</filter>
<filter id="filter1_f_561_4791" x="89.2966" y="79.9705" width="19.8931" height="40.6934" filterUnits="userSpaceOnUse" color-interpolation-filters="sRGB">
<feFlood flood-opacity="0" result="BackgroundImageFix"/>
<feBlend mode="normal" in="SourceGraphic" in2="BackgroundImageFix" result="shape"/>
<feGaussianBlur stdDeviation="0.75" result="effect1_foregroundBlur_561_4791"/>
</filter>
<filter id="filter2_f_561_4791" x="65.2012" y="48.163" width="34.3096" height="36.6329" filterUnits="userSpaceOnUse" color-interpolation-filters="sRGB">
<feFlood flood-opacity="0" result="BackgroundImageFix"/>
<feBlend mode="normal" in="SourceGraphic" in2="BackgroundImageFix" result="shape"/>
<feGaussianBlur stdDeviation="0.5" result="effect1_foregroundBlur_561_4791"/>
</filter>
<filter id="filter3_f_561_4791" x="161.148" y="33.6521" width="66.5003" height="55.7556" filterUnits="userSpaceOnUse" color-interpolation-filters="sRGB">
<feFlood flood-opacity="0" result="BackgroundImageFix"/>
<feBlend mode="normal" in="SourceGraphic" in2="BackgroundImageFix" result="shape"/>
<feGaussianBlur stdDeviation="0.375" result="effect1_foregroundBlur_561_4791"/>
</filter>
<filter id="filter4_f_561_4791" x="115.468" y="166.086" width="10.0301" height="51.6163" filterUnits="userSpaceOnUse" color-interpolation-filters="sRGB">
<feFlood flood-opacity="0" result="BackgroundImageFix"/>
<feBlend mode="normal" in="SourceGraphic" in2="BackgroundImageFix" result="shape"/>
<feGaussianBlur stdDeviation="0.2" result="effect1_foregroundBlur_561_4791"/>
</filter>
<filter id="filter5_f_561_4791" x="162.194" y="88.332" width="42.3301" height="38.668" filterUnits="userSpaceOnUse" color-interpolation-filters="sRGB">
<feFlood flood-opacity="0" result="BackgroundImageFix"/>
<feBlend mode="normal" in="SourceGraphic" in2="BackgroundImageFix" result="shape"/>
<feGaussianBlur stdDeviation="1" result="effect1_foregroundBlur_561_4791"/>
</filter>
<filter id="filter6_f_561_4791" x="194.033" y="106.142" width="23.0664" height="109.248" filterUnits="userSpaceOnUse" color-interpolation-filters="sRGB">
<feFlood flood-opacity="0" result="BackgroundImageFix"/>
<feBlend mode="normal" in="SourceGraphic" in2="BackgroundImageFix" result="shape"/>
<feGaussianBlur stdDeviation="1" result="effect1_foregroundBlur_561_4791"/>
</filter>
<filter id="filter7_f_561_4791" x="93.2324" y="50.1411" width="7.38293" height="25.0831" filterUnits="userSpaceOnUse" color-interpolation-filters="sRGB">
<feFlood flood-opacity="0" result="BackgroundImageFix"/>
<feBlend mode="normal" in="SourceGraphic" in2="BackgroundImageFix" result="shape"/>
<feGaussianBlur stdDeviation="0.5" result="effect1_foregroundBlur_561_4791"/>
</filter>
<linearGradient id="paint0_linear_561_4791" x1="27.8344" y1="100.635" x2="27.8344" y2="115.504" gradientUnits="userSpaceOnUse">
<stop stop-color="#C9265E"/>
<stop offset="1" stop-color="#D35FB0"/>
</linearGradient>
<radialGradient id="paint1_radial_561_4791" cx="0" cy="0" r="1" gradientUnits="userSpaceOnUse" gradientTransform="translate(207.031 47.1186) rotate(84.2646) scale(56.1895 56.1895)">
<stop stop-color="#FEC494"/>
<stop offset="1" stop-color="#E99A5C"/>
</radialGradient>
<radialGradient id="paint2_radial_561_4791" cx="0" cy="0" r="1" gradientUnits="userSpaceOnUse" gradientTransform="translate(204.346 67.1382) rotate(-30.9638) scale(25.6243 29.8113)">
<stop stop-color="#C46116"/>
<stop offset="1" stop-color="#C36116" stop-opacity="0"/>
</radialGradient>
<radialGradient id="paint3_radial_561_4791" cx="0" cy="0" r="1" gradientUnits="userSpaceOnUse" gradientTransform="translate(148.437 69.9458) rotate(-46.4048) scale(31.6878 41.1332)">
<stop stop-color="#DD8540"/>
<stop offset="1" stop-color="#E99A5C" stop-opacity="0"/>
</radialGradient>
<linearGradient id="paint4_linear_561_4791" x1="151.773" y1="197.461" x2="145.173" y2="142.649" gradientUnits="userSpaceOnUse">
<stop stop-color="#E99974"/>
<stop offset="0.754484" stop-color="#CF6247"/>
</linearGradient>
<linearGradient id="paint5_linear_561_4791" x1="151.23" y1="153.76" x2="154.534" y2="188.992" gradientUnits="userSpaceOnUse">
<stop stop-color="#CF6144"/>
<stop offset="1" stop-color="#BC5035" stop-opacity="0"/>
</linearGradient>
<linearGradient id="paint6_linear_561_4791" x1="177.832" y1="176.635" x2="166.81" y2="175.121" gradientUnits="userSpaceOnUse">
<stop stop-color="#CF6144"/>
<stop offset="1" stop-color="#BC5035" stop-opacity="0"/>
</linearGradient>
<linearGradient id="paint7_linear_561_4791" x1="145.63" y1="178.344" x2="151.645" y2="180.059" gradientUnits="userSpaceOnUse">
<stop stop-color="#CF6144"/>
<stop offset="1" stop-color="#BC5035" stop-opacity="0"/>
</linearGradient>
<linearGradient id="paint8_linear_561_4791" x1="158.466" y1="228.188" x2="158.466" y2="214.288" gradientUnits="userSpaceOnUse">
<stop stop-color="#EF74E3"/>
<stop offset="1" stop-color="#EB8D98" stop-opacity="0"/>
</linearGradient>
<linearGradient id="paint9_linear_561_4791" x1="162.86" y1="222.167" x2="127.212" y2="187.888" gradientUnits="userSpaceOnUse">
<stop stop-color="#FFDEAB"/>
<stop offset="1" stop-color="#FFDEAB" stop-opacity="0"/>
</linearGradient>
<linearGradient id="paint10_linear_561_4791" x1="107.91" y1="197.509" x2="100.586" y2="142.822" gradientUnits="userSpaceOnUse">
<stop stop-color="#E99974"/>
<stop offset="0.754484" stop-color="#CF6247"/>
</linearGradient>
<linearGradient id="paint11_linear_561_4791" x1="107.422" y1="153.76" x2="111.328" y2="177.001" gradientUnits="userSpaceOnUse">
<stop stop-color="#CF6144"/>
<stop offset="1" stop-color="#BC5035" stop-opacity="0"/>
</linearGradient>
<linearGradient id="paint12_linear_561_4791" x1="127.686" y1="173.583" x2="120.117" y2="175.048" gradientUnits="userSpaceOnUse">
<stop stop-color="#CF6144"/>
<stop offset="1" stop-color="#BC5035" stop-opacity="0"/>
</linearGradient>
<linearGradient id="paint13_linear_561_4791" x1="96.5039" y1="179.687" x2="104.492" y2="178.955" gradientUnits="userSpaceOnUse">
<stop stop-color="#CF6144"/>
<stop offset="1" stop-color="#BC5035" stop-opacity="0"/>
</linearGradient>
<linearGradient id="paint14_linear_561_4791" x1="113.934" y1="228.271" x2="113.934" y2="214.355" gradientUnits="userSpaceOnUse">
<stop stop-color="#EF74E3"/>
<stop offset="1" stop-color="#EB8D98" stop-opacity="0"/>
</linearGradient>
<linearGradient id="paint15_linear_561_4791" x1="119.668" y1="79.541" x2="119.668" y2="191.162" gradientUnits="userSpaceOnUse">
<stop stop-color="#F5BF86"/>
<stop offset="0.308833" stop-color="#F7BC86"/>
<stop offset="1" stop-color="#FF8B68"/>
</linearGradient>
<radialGradient id="paint16_radial_561_4791" cx="0" cy="0" r="1" gradientUnits="userSpaceOnUse" gradientTransform="translate(171.387 201.904) rotate(-44.3415) scale(60.0804 92.9244)">
<stop stop-color="#FF8B68"/>
<stop offset="1" stop-color="#FF8B68" stop-opacity="0"/>
</radialGradient>
<radialGradient id="paint17_radial_561_4791" cx="0" cy="0" r="1" gradientUnits="userSpaceOnUse" gradientTransform="translate(18.5547 184.814) rotate(-32.4302) scale(104.709 153.235)">
<stop stop-color="#FF8B68"/>
<stop offset="1" stop-color="#FF8B68" stop-opacity="0"/>
</radialGradient>
<radialGradient id="paint18_radial_561_4791" cx="0" cy="0" r="1" gradientUnits="userSpaceOnUse" gradientTransform="translate(172.852 203.369) rotate(-48.1603) scale(28.1821 39.9118)">
<stop stop-color="#C734C1"/>
<stop offset="1" stop-color="#C734C1" stop-opacity="0"/>
</radialGradient>
<radialGradient id="paint19_radial_561_4791" cx="0" cy="0" r="1" gradientUnits="userSpaceOnUse" gradientTransform="translate(73.7305 215.087) rotate(-100.389) scale(29.7852 96.4427)">
<stop stop-color="#C734C1"/>
<stop offset="1" stop-color="#C734C1" stop-opacity="0"/>
</radialGradient>
<linearGradient id="paint20_linear_561_4791" x1="0.976563" y1="51.5132" x2="47.8562" y2="96.1335" gradientUnits="userSpaceOnUse">
<stop stop-color="#CA9068"/>
<stop offset="1" stop-color="#CA9068" stop-opacity="0"/>
</linearGradient>
<radialGradient id="paint21_radial_561_4791" cx="0" cy="0" r="1" gradientUnits="userSpaceOnUse" gradientTransform="translate(150.879 80.0776) rotate(170.538) scale(46.0365 12.0931)">
<stop stop-color="#CA9068"/>
<stop offset="1" stop-color="#CA9068" stop-opacity="0"/>
</radialGradient>
<radialGradient id="paint22_radial_561_4791" cx="0" cy="0" r="1" gradientUnits="userSpaceOnUse" gradientTransform="translate(26.8555 159.912) rotate(34.9194) scale(31.5613 38.3244)">
<stop stop-color="#FFC531"/>
<stop offset="1" stop-color="#FFC531" stop-opacity="0"/>
</radialGradient>
<radialGradient id="paint23_radial_561_4791" cx="0" cy="0" r="1" gradientUnits="userSpaceOnUse" gradientTransform="translate(77.6176 38.8522) rotate(118.443) scale(27.2299 23.2275)">
<stop stop-color="#FFDAAC"/>
<stop offset="1" stop-color="#FFDAAC" stop-opacity="0"/>
</radialGradient>
<linearGradient id="paint24_linear_561_4791" x1="33.6761" y1="112.511" x2="33.6761" y2="98.1441" gradientUnits="userSpaceOnUse">
<stop stop-color="#BD44B1"/>
<stop offset="1" stop-color="#EB8D98" stop-opacity="0"/>
</linearGradient>
<linearGradient id="paint25_linear_561_4791" x1="127.441" y1="145.869" x2="127.441" y2="163.33" gradientUnits="userSpaceOnUse">
<stop stop-color="#FFC4C7"/>
<stop offset="1" stop-color="#F595BE"/>
</linearGradient>
<linearGradient id="paint26_linear_561_4791" x1="89.3555" y1="78.1245" x2="103.516" y2="113.232" gradientUnits="userSpaceOnUse">
<stop stop-color="#FFDAAD"/>
<stop offset="1" stop-color="#FFDAAC" stop-opacity="0"/>
</linearGradient>
<linearGradient id="paint27_linear_561_4791" x1="74.2188" y1="49.3159" x2="89.8438" y2="73.4858" gradientUnits="userSpaceOnUse">
<stop stop-color="#E89A49"/>
<stop offset="0.3125" stop-color="#EAA054"/>
<stop offset="1" stop-color="#F5BF86"/>
</linearGradient>
<radialGradient id="paint28_radial_561_4791" cx="0" cy="0" r="1" gradientUnits="userSpaceOnUse" gradientTransform="translate(88.623 59.0815) rotate(89.3514) scale(32.3507 36.499)">
<stop offset="0.51495" stop-color="#EB8D98" stop-opacity="0"/>
<stop offset="1" stop-color="#EF74E3"/>
</radialGradient>
<linearGradient id="paint29_linear_561_4791" x1="70.6787" y1="78.4907" x2="81.0547" y2="75.1948" gradientUnits="userSpaceOnUse">
<stop stop-color="#CA9068"/>
<stop offset="1" stop-color="#CA9068" stop-opacity="0"/>
</linearGradient>
<linearGradient id="paint30_linear_561_4791" x1="27.5879" y1="81.4941" x2="17.8223" y2="81.4941" gradientUnits="userSpaceOnUse">
<stop offset="0.225" stop-color="#6B5E60"/>
<stop offset="1" stop-color="#433338"/>
</linearGradient>
<linearGradient id="paint31_linear_561_4791" x1="32.2266" y1="89.4039" x2="32.2266" y2="79.5162" gradientUnits="userSpaceOnUse">
<stop stop-color="#552D52"/>
<stop offset="1" stop-color="#552D52" stop-opacity="0"/>
</linearGradient>
<linearGradient id="paint32_linear_561_4791" x1="59.8145" y1="75.6348" x2="54.9316" y2="75.6348" gradientUnits="userSpaceOnUse">
<stop offset="0.225" stop-color="#6B5E60"/>
<stop offset="1" stop-color="#433338"/>
</linearGradient>
<linearGradient id="paint33_linear_561_4791" x1="62.1338" y1="86.1812" x2="62.1338" y2="72.9976" gradientUnits="userSpaceOnUse">
<stop stop-color="#552D52"/>
<stop offset="1" stop-color="#552D52" stop-opacity="0"/>
</linearGradient>
<linearGradient id="paint34_linear_561_4791" x1="218.262" y1="50.7808" x2="224.121" y2="99.853" gradientUnits="userSpaceOnUse">
<stop stop-color="#FFDEAB"/>
<stop offset="1" stop-color="#FFDEAB" stop-opacity="0"/>
</linearGradient>
<linearGradient id="paint35_linear_561_4791" x1="129.395" y1="222.167" x2="93.7458" y2="187.888" gradientUnits="userSpaceOnUse">
<stop stop-color="#FFDEAB"/>
<stop offset="1" stop-color="#FFDEAB" stop-opacity="0"/>
</linearGradient>
<radialGradient id="paint36_radial_561_4791" cx="0" cy="0" r="1" gradientUnits="userSpaceOnUse" gradientTransform="translate(196.298 101.074) rotate(134.525) scale(72.9402 35.0089)">
<stop stop-color="#FFE39B"/>
<stop offset="1" stop-color="#FFDAAD" stop-opacity="0"/>
</radialGradient>
<linearGradient id="paint37_linear_561_4791" x1="217.181" y1="164.306" x2="192.039" y2="226.974" gradientUnits="userSpaceOnUse">
<stop stop-color="#FFE39B"/>
<stop offset="1" stop-color="#FFDAAC" stop-opacity="0"/>
</linearGradient>
<linearGradient id="paint38_linear_561_4791" x1="100.76" y1="64.1322" x2="97.0836" y2="77.8876" gradientUnits="userSpaceOnUse">
<stop stop-color="#FFE39B"/>
<stop offset="1" stop-color="#FFDAAC" stop-opacity="0"/>
</linearGradient>
</defs>
</svg>
